<svg width="100" height="100" viewBox="0 0 100 100" fill="none" xmlns="http://www.w3.org/2000/svg">
<circle cx="50" cy="50" r="50" fill="#F6E8EA"/>
<path fill-rule="evenodd" clip-rule="evenodd" d="M95 50C95 74.8526 74.8526 95 50 95C25.1472 95 5 74.8526 5 50C5 25.1472 25.1472 5 50 5C74.8526 5 95 25.1472 95 50ZM68.1364 36.3635C69.4544 37.6815 69.4544 39.8185 68.1364 41.1364L45.6364 63.6364C44.3183 64.9544 42.1817 64.9544 40.8635 63.6364L31.8635 54.6364C30.5455 53.3183 30.5455 51.1817 31.8635 49.8636C33.1815 48.5456 35.3185 48.5456 36.6365 49.8636L43.25 56.4768L53.3066 46.4203L63.3636 36.3635C64.6817 35.0455 66.8183 35.0455 68.1364 36.3635Z" fill="#E41BF6"/>
</svg>
