<svg width="789" height="715" viewBox="0 0 789 715" fill="none" xmlns="http://www.w3.org/2000/svg">
<circle cx="250" cy="465" r="242.5" fill="#1B5881" stroke="#62B4FF" stroke-width="15"/>
<path fill-rule="evenodd" clip-rule="evenodd" d="M259 222H239V441.358L83.8902 286.248L69.748 300.391L224.857 455.5H5.5V475.5H224.857L69.7484 630.609L83.8905 644.751L239 489.642V709H259V489.643L414.109 644.752L428.251 630.609L273.142 475.5H492.5V455.5H273.142L428.251 300.39L414.109 286.248L259 441.357V222Z" fill="#62B4FF"/>
<circle cx="250" cy="465" r="192.5" fill="#1B5881" stroke="#62B4FF" stroke-width="15"/>
<path d="M250.315 393C216.158 393 182 410.944 182 437.86C182 455.804 194.811 464.775 194.811 482.719C194.811 496.18 190.544 496.18 190.544 505.152C190.544 509.635 204.212 514.722 216.162 518.612V536.556H284.482V518.612C284.482 518.612 310.259 510.252 310.1 505.152C309.836 496.792 305.833 496.18 305.833 482.719C305.833 473.747 318.821 455.378 318.644 437.86C318.635 410.944 284.482 393 250.324 393H250.315ZM224.692 446.827C234.124 446.827 241.771 454.861 241.771 464.771C241.771 474.68 234.124 482.715 224.692 482.715C215.26 482.715 207.614 474.68 207.614 464.771C207.614 454.861 215.26 446.827 224.692 446.827ZM275.933 446.827C285.365 446.827 293.012 454.861 293.012 464.771C293.012 474.68 285.365 482.715 275.933 482.715C266.501 482.715 258.854 474.68 258.854 464.771C258.854 454.861 266.501 446.827 275.933 446.827ZM250.315 478.231C254.583 478.231 263.126 496.175 263.126 500.663C263.126 509.635 263.126 509.635 258.859 509.635H241.78C237.513 509.635 237.513 509.635 237.513 500.663C237.508 496.175 246.043 478.231 250.315 478.231Z" fill="#62B4FF"/>
<circle cx="539" cy="250" r="242.5" fill="#1B5881" stroke="#62B4FF" stroke-width="15"/>
<path fill-rule="evenodd" clip-rule="evenodd" d="M548 7H528V226.358L372.89 71.2485L358.748 85.3906L513.857 240.5H294.5V260.5H513.857L358.748 415.609L372.891 429.751L528 274.642V494H548V274.643L703.109 429.752L717.251 415.609L562.142 260.5H781.5V240.5H562.142L717.251 85.3902L703.109 71.248L548 226.357V7Z" fill="#62B4FF"/>
<circle cx="539" cy="250" r="192.5" fill="#1B5881" stroke="#62B4FF" stroke-width="15"/>
<path d="M539.315 178C505.158 178 471 195.944 471 222.86C471 240.804 483.811 249.775 483.811 267.719C483.811 281.18 479.544 281.18 479.544 290.152C479.544 294.635 493.212 299.722 505.162 303.612V321.556H573.482V303.612C573.482 303.612 599.259 295.252 599.1 290.152C598.836 281.792 594.833 281.18 594.833 267.719C594.833 258.747 607.821 240.378 607.644 222.86C607.635 195.944 573.482 178 539.324 178H539.315ZM513.692 231.827C523.124 231.827 530.771 239.861 530.771 249.771C530.771 259.68 523.124 267.715 513.692 267.715C504.26 267.715 496.614 259.68 496.614 249.771C496.614 239.861 504.26 231.827 513.692 231.827ZM564.933 231.827C574.365 231.827 582.012 239.861 582.012 249.771C582.012 259.68 574.365 267.715 564.933 267.715C555.501 267.715 547.854 259.68 547.854 249.771C547.854 239.861 555.501 231.827 564.933 231.827ZM539.315 263.231C543.583 263.231 552.126 281.175 552.126 285.663C552.126 294.635 552.126 294.635 547.859 294.635H530.78C526.513 294.635 526.513 294.635 526.513 285.663C526.508 281.175 535.043 263.231 539.315 263.231Z" fill="#62B4FF"/>
</svg>
