<svg width="354" height="354" viewBox="0 0 354 354" fill="none" xmlns="http://www.w3.org/2000/svg">
<path d="M10.1617 10.5462C-2.85598 23.5639 -2.85598 44.6692 10.1617 57.6869L129.666 177.191L10.1617 296.698C-2.85598 309.714 -2.85598 330.821 10.1617 343.838C23.179 356.854 44.2847 356.854 57.302 343.838L176.806 224.331L296.313 343.838C309.33 356.854 330.436 356.854 343.453 343.838C356.47 330.821 356.47 309.714 343.453 296.698L223.946 177.191L343.453 57.6872C356.47 44.6699 356.47 23.5642 343.453 10.5469C330.433 -2.4708 309.33 -2.4708 296.313 10.5469L176.806 130.051L57.302 10.5462C44.2847 -2.47113 23.179 -2.47113 10.1617 10.5462Z" fill="#CF19E0"/>
</svg>
