<svg width="260" height="260" viewBox="0 0 260 260" fill="none" xmlns="http://www.w3.org/2000/svg">
<path d="M194.995 255V225.582C195.09 225.552 195.187 225.52 195.288 225.488C196.588 225.069 198.442 224.461 200.665 223.704C205.108 222.192 211.041 220.078 216.976 217.68C222.889 215.29 228.899 212.581 233.446 209.867C235.71 208.516 237.724 207.099 239.193 205.645C240.575 204.278 241.936 202.428 241.864 200.228L241.864 200.227C241.641 193.52 240.018 189.375 238.393 185.228C238.133 184.564 237.874 183.901 237.619 183.227C235.823 178.463 234.058 172.634 234.058 161.245C234.058 157.853 235.374 153.312 237.593 147.649C239.036 143.967 240.779 140.001 242.649 135.746C243.638 133.495 244.662 131.163 245.697 128.75C251.596 114.988 257.662 98.9359 257.497 83.1082C257.482 58.4346 241.021 38.2281 217.188 24.3243C193.316 10.3978 161.624 2.5 130.003 2.5H129.986C98.3648 2.5 66.6704 10.3978 42.7983 24.3243C18.9608 38.2306 2.5 58.4422 2.5 83.1224C2.5 99.3377 8.58626 111.509 14.4086 123.152L14.4835 123.302C20.3581 135.05 25.939 146.281 25.939 161.245C25.939 172.602 24.0657 178.148 22.2139 182.781C22.0204 183.265 21.8249 183.743 21.6295 184.222C19.8718 188.525 18.1316 192.786 18.1316 200.31C18.1316 201.975 18.7995 203.472 19.7242 204.748C20.6465 206.021 21.9153 207.205 23.3709 208.307C26.2796 210.51 30.2885 212.652 34.8426 214.698C43.4893 218.584 54.5635 222.327 65.0013 225.591V255V257.5H67.5013H192.495H194.995V255ZM109.063 192.494V192.491C109.063 191.855 109.234 190.77 109.657 189.235C110.069 187.742 110.676 185.967 111.447 184.007C112.988 180.09 115.135 175.551 117.526 171.243C119.925 166.923 122.521 162.924 124.942 160.041C126.156 158.596 127.264 157.505 128.223 156.796C129.23 156.05 129.798 155.928 129.986 155.928C130.172 155.928 130.74 156.05 131.747 156.796C132.705 157.505 133.814 158.596 135.028 160.041C137.449 162.924 140.047 166.924 142.448 171.244C144.841 175.552 146.991 180.091 148.534 184.009C149.307 185.968 149.916 187.743 150.328 189.237C150.752 190.772 150.925 191.857 150.925 192.494C150.925 196.431 150.924 199.277 150.807 201.388C150.685 203.576 150.449 204.575 150.213 205.048C150.126 205.22 150.071 205.256 150.057 205.266C150.027 205.288 149.911 205.362 149.588 205.434C148.823 205.604 147.688 205.618 145.617 205.618H114.371C112.3 205.618 111.165 205.604 110.4 205.434C110.077 205.362 109.962 205.288 109.931 205.266C109.917 205.256 109.862 205.22 109.776 205.048C109.54 204.575 109.303 203.576 109.182 201.388C109.064 199.277 109.063 196.431 109.063 192.494ZM83.1078 101.239C98.9833 101.239 111.854 114.11 111.854 129.987C111.854 145.865 98.9833 158.736 83.1078 158.736C67.2323 158.736 54.3614 145.865 54.3614 129.987C54.3614 114.11 67.2323 101.239 83.1078 101.239ZM176.856 101.239C192.731 101.239 205.602 114.11 205.602 129.987C205.602 145.865 192.731 158.736 176.856 158.736C160.98 158.736 148.109 145.865 148.109 129.987C148.109 114.11 160.98 101.239 176.856 101.239Z" fill="white" stroke="black" stroke-width="5"/>
</svg>
