<svg width="500" height="500" viewBox="0 0 500 500" fill="none" xmlns="http://www.w3.org/2000/svg">
<circle cx="250" cy="250" r="242.5" fill="black" stroke="#04FF1D" stroke-width="15"/>
<path d="M344.632 299.132L365.129 329.879C372.676 341.199 369.617 356.494 358.297 364.041C354.25 366.739 349.495 368.179 344.632 368.179C331.026 368.179 319.996 357.149 319.996 343.544C319.996 338.68 321.436 333.925 324.134 329.879L344.632 299.132ZM303.944 198.487C339.171 233.714 356.312 275.687 340.996 291.003C339.891 292.109 338.646 293.045 337.276 293.818L248.751 355.998C233.612 367.216 212.721 366.045 198.941 353.435L197.67 352.22L150.212 304.762C136.888 291.438 134.973 270.602 145.366 255.187L146.376 253.758L209.494 166.328C210.297 164.893 211.273 163.592 212.429 162.436C227.745 147.12 268.718 163.261 303.944 198.487Z" fill="#04FF1D"/>
</svg>
