<svg width="3840" height="2160" viewBox="0 0 3840 2160" fill="none" xmlns="http://www.w3.org/2000/svg">
<rect width="3840" height="2160" fill="url(#paint0_linear_255_89)"/>
<rect y="1362" width="3840" height="798" fill="url(#paint1_radial_255_89)"/>
<path d="M720 0H0V1838L720 1360.5V0Z" fill="url(#paint2_linear_255_89)"/>
<path fill-rule="evenodd" clip-rule="evenodd" d="M3501 1452H1261L461 2160H3840V1752.02L3501 1452Z" fill="url(#paint3_radial_255_89)"/>
<path d="M1280 133C1280 110.909 1297.91 93 1320 93H3440C3462.09 93 3480 110.909 3480 133V1353C3480 1375.09 3462.09 1393 3440 1393H1320C1297.91 1393 1280 1375.09 1280 1353V133Z" fill="url(#paint4_linear_255_89)"/>
<path d="M2045.19 1562.95C2051.79 1548.94 2065.88 1540 2081.37 1540H2677.77C2693.18 1540 2707.23 1548.86 2713.87 1562.77L2791.19 1724.77C2803.86 1751.32 2784.5 1782 2755.09 1782H2005.06C1975.73 1782 1956.37 1751.48 1968.87 1724.95L2045.19 1562.95Z" fill="url(#paint5_radial_255_89)"/>
<path d="M2168 1393H2591V1621C2591 1643.09 2573.09 1661 2551 1661H2208C2185.91 1661 2168 1643.09 2168 1621V1393Z" fill="url(#paint6_linear_255_89)"/>
<path d="M3410.5 1761C3320.5 1683 3075.7 1631.5 2914.5 1697.5C2753.3 1763.5 2603.5 1532 2603.5 1393" stroke="url(#paint7_radial_255_89)" stroke-width="15"/>
<path d="M1845.5 1811.5C1845.5 1542.5 2431.18 1744.93 2603.5 1719.5C2830.5 1686 2627 1531.5 2627 1392.5" stroke="url(#paint8_radial_255_89)" stroke-width="20"/>
<rect x="1315" y="118" width="2130" height="1250" rx="10" fill="black"/>
<path d="M3414.72 1758.21C3436 1744.91 3458.22 1712.7 3553.22 1765.71C3648.22 1818.71 3674.44 1900.41 3648.22 1937.21C3622 1974 3573.44 2004.91 3457.22 1915.21C3341 1825.5 3393.44 1771.5 3414.72 1758.21Z" fill="url(#paint9_radial_255_89)"/>
<path d="M3406.84 1744.07C3408.45 1741.83 3411.58 1741.31 3413.82 1742.92L3425.2 1751.07L3414.26 1766.34C3411.05 1770.83 3404.8 1771.86 3400.31 1768.64L3397.06 1766.31C3394.81 1764.71 3394.3 1761.58 3395.91 1759.34L3406.84 1744.07Z" fill="#1D1D1D"/>
<path d="M2028 1403V1393H2008V1403H2028ZM1564.69 1455.46C1566.05 1450.11 1562.82 1444.67 1557.46 1443.31C1552.11 1441.95 1546.67 1445.18 1545.31 1450.54L1564.69 1455.46ZM2008 1403C2008 1471.25 1979.75 1553.28 1913.03 1611.48C1846.59 1669.43 1740.71 1704.85 1583.2 1677.65L1579.8 1697.35C1741.89 1725.35 1854.26 1689.27 1926.17 1626.55C1997.8 1564.07 2028 1476.25 2028 1403H2008ZM1583.2 1677.65C1543.53 1670.79 1513.34 1663.51 1490.84 1655.9C1468.2 1648.24 1454.09 1640.49 1445.91 1633.14C1438.08 1626.11 1436.08 1619.87 1436.45 1614.08C1436.87 1607.56 1440.41 1599.72 1447.56 1590.27C1454.62 1580.95 1464.37 1571.1 1475.61 1560.6C1481.2 1555.38 1487.06 1550.09 1493.06 1544.68C1499.03 1539.29 1505.14 1533.78 1511.11 1528.21C1523.01 1517.11 1534.65 1505.51 1544.12 1493.59C1553.54 1481.71 1561.27 1468.95 1564.69 1455.46L1545.31 1450.54C1542.86 1460.17 1537.02 1470.36 1528.45 1481.15C1519.92 1491.9 1509.15 1502.69 1497.46 1513.59C1491.63 1519.03 1485.65 1524.43 1479.66 1529.83C1473.69 1535.22 1467.7 1540.63 1461.96 1545.98C1450.55 1556.63 1439.75 1567.45 1431.61 1578.2C1423.57 1588.83 1417.28 1600.49 1416.49 1612.79C1415.65 1625.81 1421.06 1637.7 1432.54 1648.02C1443.66 1658.01 1460.74 1666.83 1484.43 1674.84C1508.27 1682.91 1539.57 1690.41 1579.8 1697.35L1583.2 1677.65Z" fill="url(#paint10_radial_255_89)"/>
<path d="M3586.5 1787C3511.5 1731.5 3453 1730.17 3432.5 1747.5C3399 1785.5 3473.5 1863.67 3503.5 1878.5C3517.5 1883 3580.17 1814.67 3586.5 1787Z" fill="url(#paint11_radial_255_89)"/>
<path fill-rule="evenodd" clip-rule="evenodd" d="M1767.35 1806C1726.06 1806 1689.02 1831.38 1674.1 1869.88L1561.72 2160H3191.32L3061.56 1865.66C3045.58 1829.4 3009.69 1806 2970.06 1806H1767.35Z" fill="#1E1E1E"/>
<path d="M943 1740L459 2159.5H545H635H1561L1785 1587.5L943 1740Z" fill="url(#paint12_radial_255_89)"/>
<path d="M1372 1539.14C1372 1571.24 1283.31 1597.27 1173.91 1597.27C1064.51 1597.27 975.828 1571.24 975.828 1539.14C975.828 1507.03 1064.51 1481 1173.91 1481C1283.31 1481 1372 1507.03 1372 1539.14Z" fill="url(#paint13_linear_255_89)"/>
<path d="M1372 2005.86C1372 2037.97 1283.31 2064 1173.91 2064C1064.51 2064 975.828 2037.97 975.828 2005.86C975.828 1973.76 1064.51 1947.73 1173.91 1947.73C1283.31 1947.73 1372 1973.76 1372 2005.86Z" fill="url(#paint14_linear_255_89)"/>
<path d="M975.828 1539.14H1372V2005.86H975.828V1539.14Z" fill="url(#paint15_linear_255_89)"/>
<ellipse cx="1174.33" cy="1539.14" rx="175.435" ry="51.5857" fill="url(#paint16_linear_255_89)"/>
<path d="M1340 1551.67C1340 1570.45 1257.1 1591 1173.79 1591C1090.49 1591 1008 1570.04 1008 1551.27C1008 1532.49 1090.49 1523 1173.79 1523C1257.1 1523 1340 1532.9 1340 1551.67Z" fill="url(#paint17_radial_255_89)"/>
<path d="M1013.48 1966.94C1027.28 1966.68 1038.26 1955.27 1038 1941.47C1037.73 1927.67 1026.33 1916.69 1012.52 1916.95L1013.48 1966.94ZM994.394 1580C976.212 1580.08 943.215 1579.8 914.776 1590.91C899.984 1596.69 885.122 1606 874.049 1621.05C862.84 1636.29 857 1655.41 857 1678.1H907C907 1664.25 910.431 1655.97 914.326 1650.68C918.357 1645.2 924.432 1640.82 932.974 1637.48C951.202 1630.36 974.454 1630.08 994.605 1630L994.394 1580ZM857 1678.1C857 1678.25 857 1678.39 857 1678.53C857 1678.67 857 1678.82 857 1678.96C857 1679.1 857 1679.25 857 1679.39C857 1679.53 857 1679.67 857 1679.82C857 1679.96 857 1680.1 857 1680.25C857 1680.39 857 1680.53 857 1680.68C857 1680.82 857 1680.96 857 1681.11C857 1681.25 857 1681.39 857 1681.54C857 1681.68 857 1681.82 857 1681.97C857 1682.11 857 1682.25 857 1682.4C857 1682.54 857 1682.68 857 1682.83C857 1682.97 857 1683.11 857 1683.26C857 1683.4 857 1683.55 857 1683.69C857 1683.83 857 1683.98 857 1684.12C857 1684.26 857 1684.41 857 1684.55C857 1684.7 857 1684.84 857 1684.98C857 1685.13 857 1685.27 857 1685.42C857 1685.56 857 1685.7 857 1685.85C857 1685.99 857 1686.14 857 1686.28C857 1686.42 857 1686.57 857 1686.71C857 1686.86 857 1687 857 1687.15C857 1687.29 857 1687.43 857 1687.58C857 1687.72 857 1687.87 857 1688.01C857 1688.16 857 1688.3 857 1688.44C857 1688.59 857 1688.73 857 1688.88C857 1689.02 857 1689.17 857 1689.31C857 1689.46 857 1689.6 857 1689.75C857 1689.89 857 1690.03 857 1690.18C857 1690.32 857 1690.47 857 1690.61C857 1690.76 857 1690.9 857 1691.05C857 1691.19 857 1691.34 857 1691.48C857 1691.63 857 1691.77 857 1691.92C857 1692.06 857 1692.21 857 1692.35C857 1692.5 857 1692.64 857 1692.79C857 1692.93 857 1693.08 857 1693.22C857 1693.37 857 1693.51 857 1693.66C857 1693.8 857 1693.95 857 1694.09C857 1694.24 857 1694.38 857 1694.53C857 1694.67 857 1694.82 857 1694.96C857 1695.11 857 1695.25 857 1695.4C857 1695.55 857 1695.69 857 1695.84C857 1695.98 857 1696.13 857 1696.27C857 1696.42 857 1696.56 857 1696.71C857 1696.85 857 1697 857 1697.15C857 1697.29 857 1697.44 857 1697.58C857 1697.73 857 1697.87 857 1698.02C857 1698.16 857 1698.31 857 1698.46C857 1698.6 857 1698.75 857 1698.89C857 1699.04 857 1699.18 857 1699.33C857 1699.48 857 1699.62 857 1699.77C857 1699.91 857 1700.06 857 1700.21C857 1700.35 857 1700.5 857 1700.64C857 1700.79 857 1700.93 857 1701.08C857 1701.23 857 1701.37 857 1701.52C857 1701.66 857 1701.81 857 1701.96C857 1702.1 857 1702.25 857 1702.39C857 1702.54 857 1702.69 857 1702.83C857 1702.98 857 1703.12 857 1703.27C857 1703.42 857 1703.56 857 1703.71C857 1703.86 857 1704 857 1704.15C857 1704.29 857 1704.44 857 1704.59C857 1704.73 857 1704.88 857 1705.03C857 1705.17 857 1705.32 857 1705.46C857 1705.61 857 1705.76 857 1705.9C857 1706.05 857 1706.2 857 1706.34C857 1706.49 857 1706.64 857 1706.78C857 1706.93 857 1707.07 857 1707.22C857 1707.37 857 1707.51 857 1707.66C857 1707.81 857 1707.95 857 1708.1C857 1708.25 857 1708.39 857 1708.54C857 1708.69 857 1708.83 857 1708.98C857 1709.13 857 1709.27 857 1709.42C857 1709.57 857 1709.71 857 1709.86C857 1710.01 857 1710.15 857 1710.3C857 1710.45 857 1710.59 857 1710.74C857 1710.89 857 1711.03 857 1711.18C857 1711.33 857 1711.47 857 1711.62C857 1711.77 857 1711.91 857 1712.06C857 1712.21 857 1712.35 857 1712.5C857 1712.65 857 1712.79 857 1712.94C857 1713.09 857 1713.23 857 1713.38C857 1713.53 857 1713.67 857 1713.82C857 1713.97 857 1714.12 857 1714.26C857 1714.41 857 1714.56 857 1714.7C857 1714.85 857 1715 857 1715.14C857 1715.29 857 1715.44 857 1715.58C857 1715.73 857 1715.88 857 1716.02C857 1716.17 857 1716.32 857 1716.47C857 1716.61 857 1716.76 857 1716.91C857 1717.05 857 1717.2 857 1717.35C857 1717.49 857 1717.64 857 1717.79C857 1717.94 857 1718.08 857 1718.23C857 1718.38 857 1718.52 857 1718.67C857 1718.82 857 1718.97 857 1719.11C857 1719.26 857 1719.41 857 1719.55C857 1719.7 857 1719.85 857 1719.99C857 1720.14 857 1720.29 857 1720.44C857 1720.58 857 1720.73 857 1720.88C857 1721.02 857 1721.17 857 1721.32C857 1721.47 857 1721.61 857 1721.76C857 1721.91 857 1722.05 857 1722.2C857 1722.35 857 1722.5 857 1722.64C857 1722.79 857 1722.94 857 1723.08C857 1723.23 857 1723.38 857 1723.53C857 1723.67 857 1723.82 857 1723.97C857 1724.12 857 1724.26 857 1724.41C857 1724.56 857 1724.7 857 1724.85C857 1725 857 1725.15 857 1725.29C857 1725.44 857 1725.59 857 1725.73C857 1725.88 857 1726.03 857 1726.18C857 1726.32 857 1726.47 857 1726.62C857 1726.76 857 1726.91 857 1727.06C857 1727.21 857 1727.35 857 1727.5C857 1727.65 857 1727.8 857 1727.94C857 1728.09 857 1728.24 857 1728.38C857 1728.53 857 1728.68 857 1728.83C857 1728.97 857 1729.12 857 1729.27C857 1729.41 857 1729.56 857 1729.71C857 1729.86 857 1730 857 1730.15C857 1730.3 857 1730.44 857 1730.59C857 1730.74 857 1730.89 857 1731.03C857 1731.18 857 1731.33 857 1731.48C857 1731.62 857 1731.77 857 1731.92C857 1732.06 857 1732.21 857 1732.36C857 1732.51 857 1732.65 857 1732.8C857 1732.95 857 1733.09 857 1733.24C857 1733.39 857 1733.54 857 1733.68C857 1733.83 857 1733.98 857 1734.12C857 1734.27 857 1734.42 857 1734.57C857 1734.71 857 1734.86 857 1735.01C857 1735.15 857 1735.3 857 1735.45C857 1735.6 857 1735.74 857 1735.89C857 1736.04 857 1736.18 857 1736.33C857 1736.48 857 1736.63 857 1736.77C857 1736.92 857 1737.07 857 1737.21C857 1737.36 857 1737.51 857 1737.66C857 1737.8 857 1737.95 857 1738.1C857 1738.24 857 1738.39 857 1738.54C857 1738.68 857 1738.83 857 1738.98C857 1739.13 857 1739.27 857 1739.42C857 1739.57 857 1739.71 857 1739.86C857 1740.01 857 1740.15 857 1740.3C857 1740.45 857 1740.6 857 1740.74C857 1740.89 857 1741.04 857 1741.18C857 1741.33 857 1741.48 857 1741.62C857 1741.77 857 1741.92 857 1742.06C857 1742.21 857 1742.36 857 1742.5C857 1742.65 857 1742.8 857 1742.95C857 1743.09 857 1743.24 857 1743.39C857 1743.53 857 1743.68 857 1743.83C857 1743.97 857 1744.12 857 1744.27C857 1744.41 857 1744.56 857 1744.71C857 1744.85 857 1745 857 1745.15C857 1745.29 857 1745.44 857 1745.59C857 1745.73 857 1745.88 857 1746.03C857 1746.17 857 1746.32 857 1746.47C857 1746.61 857 1746.76 857 1746.91C857 1747.05 857 1747.2 857 1747.35C857 1747.49 857 1747.64 857 1747.79C857 1747.93 857 1748.08 857 1748.23C857 1748.37 857 1748.52 857 1748.67C857 1748.81 857 1748.96 857 1749.1C857 1749.25 857 1749.4 857 1749.54C857 1749.69 857 1749.84 857 1749.98C857 1750.13 857 1750.28 857 1750.42C857 1750.57 857 1750.71 857 1750.86C857 1751.01 857 1751.15 857 1751.3C857 1751.45 857 1751.59 857 1751.74C857 1751.89 857 1752.03 857 1752.18C857 1752.32 857 1752.47 857 1752.62C857 1752.76 857 1752.91 857 1753.05C857 1753.2 857 1753.35 857 1753.49C857 1753.64 857 1753.78 857 1753.93C857 1754.08 857 1754.22 857 1754.37C857 1754.52 857 1754.66 857 1754.81C857 1754.95 857 1755.1 857 1755.24C857 1755.39 857 1755.54 857 1755.68C857 1755.83 857 1755.97 857 1756.12C857 1756.27 857 1756.41 857 1756.56C857 1756.7 857 1756.85 857 1756.99C857 1757.14 857 1757.29 857 1757.43C857 1757.58 857 1757.72 857 1757.87C857 1758.01 857 1758.16 857 1758.31C857 1758.45 857 1758.6 857 1758.74C857 1758.89 857 1759.03 857 1759.18C857 1759.33 857 1759.47 857 1759.62C857 1759.76 857 1759.91 857 1760.05C857 1760.2 857 1760.34 857 1760.49C857 1760.63 857 1760.78 857 1760.92C857 1761.07 857 1761.22 857 1761.36C857 1761.51 857 1761.65 857 1761.8C857 1761.94 857 1762.09 857 1762.23C857 1762.38 857 1762.52 857 1762.67C857 1762.81 857 1762.96 857 1763.1C857 1763.25 857 1763.39 857 1763.54C857 1763.68 857 1763.83 857 1763.97C857 1764.12 857 1764.26 857 1764.41C857 1764.55 857 1764.7 857 1764.84C857 1764.99 857 1765.13 857 1765.28C857 1765.42 857 1765.57 857 1765.71C857 1765.86 857 1766 857 1766.14C857 1766.29 857 1766.43 857 1766.58C857 1766.72 857 1766.87 857 1767.01C857 1767.16 857 1767.3 857 1767.45C857 1767.59 857 1767.74 857 1767.88C857 1768.02 857 1768.17 857 1768.31C857 1768.46 857 1768.6 857 1768.75C857 1768.89 857 1769.03 857 1769.18C857 1769.32 857 1769.47 857 1769.61C857 1769.76 857 1769.9 857 1770.04C857 1770.19 857 1770.33 857 1770.48C857 1770.62 857 1770.76 857 1770.91C857 1771.05 857 1771.2 857 1771.34C857 1771.48 857 1771.63 857 1771.77C857 1771.92 857 1772.06 857 1772.2C857 1772.35 857 1772.49 857 1772.63C857 1772.78 857 1772.92 857 1773.07C857 1773.21 857 1773.35 857 1773.5C857 1773.64 857 1773.78 857 1773.93C857 1774.07 857 1774.21 857 1774.36C857 1774.5 857 1774.64 857 1774.79C857 1774.93 857 1775.07 857 1775.22C857 1775.36 857 1775.5 857 1775.65C857 1775.79 857 1775.93 857 1776.08C857 1776.22 857 1776.36 857 1776.51C857 1776.65 857 1776.79 857 1776.93C857 1777.08 857 1777.22 857 1777.36C857 1777.51 857 1777.65 857 1777.79C857 1777.94 857 1778.08 857 1778.22C857 1778.36 857 1778.51 857 1778.65C857 1778.79 857 1778.93 857 1779.08C857 1779.22 857 1779.36 857 1779.5C857 1779.65 857 1779.79 857 1779.93C857 1780.07 857 1780.22 857 1780.36C857 1780.5 857 1780.64 857 1780.79C857 1780.93 857 1781.07 857 1781.21C857 1781.36 857 1781.5 857 1781.64C857 1781.78 857 1781.92 857 1782.07C857 1782.21 857 1782.35 857 1782.49C857 1782.63 857 1782.78 857 1782.92C857 1783.06 857 1783.2 857 1783.34C857 1783.48 857 1783.63 857 1783.77C857 1783.91 857 1784.05 857 1784.19C857 1784.33 857 1784.48 857 1784.62C857 1784.76 857 1784.9 857 1785.04C857 1785.18 857 1785.32 857 1785.47C857 1785.61 857 1785.75 857 1785.89C857 1786.03 857 1786.17 857 1786.31C857 1786.45 857 1786.6 857 1786.74C857 1786.88 857 1787.02 857 1787.16C857 1787.3 857 1787.44 857 1787.58C857 1787.72 857 1787.86 857 1788.01C857 1788.15 857 1788.29 857 1788.43C857 1788.57 857 1788.71 857 1788.85C857 1788.99 857 1789.13 857 1789.27C857 1789.41 857 1789.55 857 1789.69C857 1789.83 857 1789.97 857 1790.11C857 1790.25 857 1790.39 857 1790.53C857 1790.67 857 1790.81 857 1790.96C857 1791.1 857 1791.24 857 1791.38C857 1791.52 857 1791.66 857 1791.8C857 1791.94 857 1792.08 857 1792.21C857 1792.35 857 1792.49 857 1792.63C857 1792.77 857 1792.91 857 1793.05C857 1793.19 857 1793.33 857 1793.47C857 1793.61 857 1793.75 857 1793.89C857 1794.03 857 1794.17 857 1794.31C857 1794.45 857 1794.59 857 1794.73C857 1794.87 857 1795 857 1795.14C857 1795.28 857 1795.42 857 1795.56C857 1795.7 857 1795.84 857 1795.98C857 1796.12 857 1796.26 857 1796.39C857 1796.53 857 1796.67 857 1796.81C857 1796.95 857 1797.09 857 1797.23C857 1797.36 857 1797.5 857 1797.64C857 1797.78 857 1797.92 857 1798.06C857 1798.2 857 1798.33 857 1798.47C857 1798.61 857 1798.75 857 1798.89C857 1799.02 857 1799.16 857 1799.3C857 1799.44 857 1799.58 857 1799.71C857 1799.85 857 1799.99 857 1800.13C857 1800.27 857 1800.4 857 1800.54C857 1800.68 857 1800.82 857 1800.95C857 1801.09 857 1801.23 857 1801.37C857 1801.5 857 1801.64 857 1801.78C857 1801.92 857 1802.05 857 1802.19C857 1802.33 857 1802.47 857 1802.6C857 1802.74 857 1802.88 857 1803.01C857 1803.15 857 1803.29 857 1803.42C857 1803.56 857 1803.7 857 1803.84C857 1803.97 857 1804.11 857 1804.25C857 1804.38 857 1804.52 857 1804.65C857 1804.79 857 1804.93 857 1805.06C857 1805.2 857 1805.34 857 1805.47C857 1805.61 857 1805.75 857 1805.88C857 1806.02 857 1806.15 857 1806.29C857 1806.43 857 1806.56 857 1806.7C857 1806.83 857 1806.97 857 1807.11C857 1807.24 857 1807.38 857 1807.51C857 1807.65 857 1807.78 857 1807.92C857 1808.06 857 1808.19 857 1808.33C857 1808.46 857 1808.6 857 1808.73C857 1808.87 857 1809 857 1809.14C857 1809.27 857 1809.41 857 1809.54C857 1809.68 857 1809.81 857 1809.95C857 1810.08 857 1810.22 857 1810.35C857 1810.49 857 1810.62 857 1810.76C857 1810.89 857 1811.03 857 1811.16C857 1811.29 857 1811.43 857 1811.56C857 1811.7 857 1811.83 857 1811.97C857 1812.1 857 1812.23 857 1812.37C857 1812.5 857 1812.64 857 1812.77C857 1812.9 857 1813.04 857 1813.17C857 1813.31 857 1813.44 857 1813.57C857 1813.71 857 1813.84 857 1813.97C857 1814.11 857 1814.24 857 1814.38C857 1814.51 857 1814.64 857 1814.78C857 1814.91 857 1815.04 857 1815.18C857 1815.31 857 1815.44 857 1815.57C857 1815.71 857 1815.84 857 1815.97C857 1816.11 857 1816.24 857 1816.37C857 1816.5 857 1816.64 857 1816.77C857 1816.9 857 1817.03 857 1817.17C857 1817.3 857 1817.43 857 1817.56C857 1817.7 857 1817.83 857 1817.96C857 1818.09 857 1818.23 857 1818.36C857 1818.49 857 1818.62 857 1818.75C857 1818.89 857 1819.02 857 1819.15C857 1819.28 857 1819.41 857 1819.54C857 1819.68 857 1819.81 857 1819.94C857 1820.07 857 1820.2 857 1820.33C857 1820.46 857 1820.6 857 1820.73C857 1820.86 857 1820.99 857 1821.12C857 1821.25 857 1821.38 857 1821.51C857 1821.64 857 1821.77 857 1821.9C857 1822.04 857 1822.17 857 1822.3C857 1822.43 857 1822.56 857 1822.69C857 1822.82 857 1822.95 857 1823.08C857 1823.21 857 1823.34 857 1823.47C857 1823.6 857 1823.73 857 1823.86C857 1823.99 857 1824.12 857 1824.25C857 1824.38 857 1824.51 857 1824.64C857 1824.77 857 1824.9 857 1825.03C857 1825.16 857 1825.29 857 1825.42C857 1825.54 857 1825.67 857 1825.8C857 1825.93 857 1826.06 857 1826.19C857 1826.32 857 1826.45 857 1826.58C857 1826.71 857 1826.84 857 1826.96C857 1827.09 857 1827.22 857 1827.35C857 1827.48 857 1827.61 857 1827.74C857 1827.86 857 1827.99 857 1828.12C857 1828.25 857 1828.38 857 1828.5C857 1828.63 857 1828.76 857 1828.89C857 1829.02 857 1829.14 857 1829.27C857 1829.4 857 1829.53 857 1829.65C857 1829.78 857 1829.91 857 1830.04C857 1830.16 857 1830.29 857 1830.42C857 1830.55 857 1830.67 857 1830.8C857 1830.93 857 1831.06 857 1831.18C857 1831.31 857 1831.44 857 1831.56C857 1831.69 857 1831.82 857 1831.94C857 1832.07 857 1832.2 857 1832.32C857 1832.45 857 1832.57 857 1832.7C857 1832.83 857 1832.95 857 1833.08C857 1833.21 857 1833.33 857 1833.46C857 1833.58 857 1833.71 857 1833.84C857 1833.96 857 1834.09 857 1834.21C857 1834.34 857 1834.46 857 1834.59C857 1834.71 857 1834.84 857 1834.96C857 1835.09 857 1835.21 857 1835.34C857 1835.47 857 1835.59 857 1835.71C857 1835.84 857 1835.96 857 1836.09C857 1836.21 857 1836.34 857 1836.46C857 1836.59 857 1836.71 857 1836.84C857 1836.96 857 1837.09 857 1837.21C857 1837.33 857 1837.46 857 1837.58C857 1837.71 857 1837.83 857 1837.95C857 1838.08 857 1838.2 857 1838.32C857 1838.45 857 1838.57 857 1838.7C857 1838.82 857 1838.94 857 1839.07C857 1839.19 857 1839.31 857 1839.44C857 1839.56 857 1839.68 857 1839.8C857 1839.93 857 1840.05 857 1840.17C857 1840.3 857 1840.42 857 1840.54C857 1840.66 857 1840.79 857 1840.91C857 1841.03 857 1841.15 857 1841.27C857 1841.4 857 1841.52 857 1841.64C857 1841.76 857 1841.89 857 1842.01C857 1842.13 857 1842.25 857 1842.37C857 1842.49 857 1842.62 857 1842.74C857 1842.86 857 1842.98 857 1843.1C857 1843.22 857 1843.34 857 1843.46C857 1843.59 857 1843.71 857 1843.83C857 1843.95 857 1844.07 857 1844.19C857 1844.31 857 1844.43 857 1844.55C857 1844.67 857 1844.79 857 1844.91C857 1845.03 857 1845.15 857 1845.27C857 1845.39 857 1845.51 857 1845.63C857 1845.75 857 1845.87 857 1845.99C857 1846.11 857 1846.23 857 1846.35C857 1846.47 857 1846.59 857 1846.71C857 1846.83 857 1846.95 857 1847.07C857 1847.19 857 1847.31 857 1847.43C857 1847.54 857 1847.66 857 1847.78C857 1847.9 857 1848.02 857 1848.14C857 1848.26 857 1848.38 857 1848.49C857 1848.61 857 1848.73 857 1848.85C857 1848.97 857 1849.08 857 1849.2C857 1849.32 857 1849.44 857 1849.56C857 1849.67 857 1849.79 857 1849.91C857 1850.03 857 1850.14 857 1850.26C857 1850.38 857 1850.5 857 1850.61C857 1850.73 857 1850.85 857 1850.97C857 1851.08 857 1851.2 857 1851.32C857 1851.43 857 1851.55 857 1851.67C857 1851.78 857 1851.9 857 1852.02C857 1852.13 857 1852.25 857 1852.36C857 1852.48 857 1852.6 857 1852.71C857 1852.83 857 1852.94 857 1853.06C857 1853.18 857 1853.29 857 1853.41C857 1853.52 857 1853.64 857 1853.75C857 1853.87 857 1853.98 857 1854.1C857 1854.21 857 1854.33 857 1854.44C857 1854.56 857 1854.67 857 1854.79C857 1854.9 857 1855.02 857 1855.13C857 1855.25 857 1855.36 857 1855.48C857 1855.59 857 1855.7 857 1855.82C857 1855.93 857 1856.05 857 1856.16C857 1856.27 857 1856.39 857 1856.5C857 1856.61 857 1856.73 857 1856.84C857 1856.95 857 1857.07 857 1857.18C857 1857.29 857 1857.41 857 1857.52C857 1857.63 857 1857.75 857 1857.86C857 1857.97 857 1858.09 857 1858.2C857 1858.31 857 1858.42 857 1858.54C857 1858.65 857 1858.76 857 1858.87C857 1858.98 857 1859.1 857 1859.21C857 1859.32 857 1859.43 857 1859.54C857 1859.66 857 1859.77 857 1859.88C857 1859.99 857 1860.1 857 1860.21C857 1860.32 857 1860.43 857 1860.55C857 1860.66 857 1860.77 857 1860.88C857 1860.99 857 1861.1 857 1861.21C857 1861.32 857 1861.43 857 1861.54C857 1861.65 857 1861.76 857 1861.87C857 1861.98 857 1862.09 857 1862.2C857 1862.31 857 1862.42 857 1862.53C857 1862.64 857 1862.75 857 1862.86C857 1862.97 857 1863.08 857 1863.19C857 1863.3 857 1863.41 857 1863.52C857 1863.63 857 1863.73 857 1863.84C857 1863.95 857 1864.06 857 1864.17C857 1864.28 857 1864.39 857 1864.49C857 1864.6 857 1864.71 857 1864.82C857 1864.93 857 1865.04 857 1865.14C857 1865.25 857 1865.36 857 1865.47C857 1865.57 857 1865.68 857 1865.79C857 1865.9 857 1866 857 1866.11C857 1866.22 857 1866.33 857 1866.43C857 1866.54 857 1866.65 857 1866.75C857 1866.86 857 1866.97 857 1867.07C857 1867.18 857 1867.29 857 1867.39C857 1867.5 857 1867.6 857 1867.71C857 1867.82 857 1867.92 857 1868.03C857 1868.13 857 1868.24 857 1868.34C857 1868.45 857 1868.56 857 1868.66C857 1868.77 857 1868.87 857 1868.98C857 1869.08 857 1869.19 857 1869.29C857 1869.4 857 1869.5 857 1869.61C857 1869.71 857 1869.81 857 1869.92C857 1870.02 857 1870.13 857 1870.23C857 1870.34 857 1870.44 857 1870.54C857 1870.65 857 1870.75 857 1870.85C857 1870.96 857 1871.06 857 1871.17C857 1871.27 857 1871.37 857 1871.47C857 1871.58 857 1871.68 857 1871.78C857 1871.89 857 1871.99 857 1872.09C857 1872.19 857 1872.3 857 1872.4C857 1872.5 857 1872.6 857 1872.71C857 1872.81 857 1872.91 857 1873.01C857 1873.11 857 1873.22 857 1873.32C857 1873.42 857 1873.52 857 1873.62C857 1873.72 857 1873.83 857 1873.93C857 1874.03 857 1874.13 857 1874.23C857 1874.33 857 1874.43 857 1874.53C857 1874.63 857 1874.73 857 1874.83C857 1874.93 857 1875.03 857 1875.13C857 1875.23 857 1875.33 857 1875.43C857 1875.53 857 1875.63 857 1875.73C857 1875.83 857 1875.93 857 1876.03C857 1876.13 857 1876.23 857 1876.33C857 1876.43 857 1876.53 857 1876.63C857 1876.73 857 1876.82 857 1876.92C857 1877.02 857 1877.12 857 1877.22C857 1877.32 857 1877.41 857 1877.51C857 1877.61 857 1877.71 857 1877.81C857 1877.9 857 1878 857 1878.1C857 1878.2 857 1878.29 857 1878.39C857 1878.49 857 1878.59 857 1878.68C857 1878.78 857 1878.88 857 1878.97C857 1879.07 857 1879.17 857 1879.26C857 1879.36 857 1879.46 857 1879.55C857 1879.65 857 1879.75 857 1879.84C857 1879.94 857 1880.03 857 1880.13C857 1880.23 857 1880.32 857 1880.42C857 1880.51 857 1880.61 857 1880.7C857 1880.8 857 1880.89 857 1880.99C857 1881.08 857 1881.18 857 1881.27C857 1881.37 857 1881.46 857 1881.56C857 1881.65 857 1881.74 857 1881.84C857 1881.93 857 1882.03 857 1882.12C857 1882.21 857 1882.31 857 1882.4H907C907 1882.31 907 1882.21 907 1882.12C907 1882.03 907 1881.93 907 1881.84C907 1881.74 907 1881.65 907 1881.56C907 1881.46 907 1881.37 907 1881.27C907 1881.18 907 1881.08 907 1880.99C907 1880.89 907 1880.8 907 1880.7C907 1880.61 907 1880.51 907 1880.42C907 1880.32 907 1880.23 907 1880.13C907 1880.03 907 1879.94 907 1879.84C907 1879.75 907 1879.65 907 1879.55C907 1879.46 907 1879.36 907 1879.26C907 1879.17 907 1879.07 907 1878.97C907 1878.88 907 1878.78 907 1878.68C907 1878.59 907 1878.49 907 1878.39C907 1878.29 907 1878.2 907 1878.1C907 1878 907 1877.9 907 1877.81C907 1877.71 907 1877.61 907 1877.51C907 1877.41 907 1877.32 907 1877.22C907 1877.12 907 1877.02 907 1876.92C907 1876.82 907 1876.73 907 1876.63C907 1876.53 907 1876.43 907 1876.33C907 1876.23 907 1876.13 907 1876.03C907 1875.93 907 1875.83 907 1875.73C907 1875.63 907 1875.53 907 1875.43C907 1875.33 907 1875.23 907 1875.13C907 1875.03 907 1874.93 907 1874.83C907 1874.73 907 1874.63 907 1874.53C907 1874.43 907 1874.33 907 1874.23C907 1874.13 907 1874.03 907 1873.93C907 1873.83 907 1873.72 907 1873.62C907 1873.52 907 1873.42 907 1873.32C907 1873.22 907 1873.11 907 1873.01C907 1872.91 907 1872.81 907 1872.71C907 1872.6 907 1872.5 907 1872.4C907 1872.3 907 1872.19 907 1872.09C907 1871.99 907 1871.89 907 1871.78C907 1871.68 907 1871.58 907 1871.47C907 1871.37 907 1871.27 907 1871.17C907 1871.06 907 1870.96 907 1870.85C907 1870.75 907 1870.65 907 1870.54C907 1870.44 907 1870.34 907 1870.23C907 1870.13 907 1870.02 907 1869.92C907 1869.81 907 1869.71 907 1869.61C907 1869.5 907 1869.4 907 1869.29C907 1869.19 907 1869.08 907 1868.98C907 1868.87 907 1868.77 907 1868.66C907 1868.56 907 1868.45 907 1868.34C907 1868.24 907 1868.13 907 1868.03C907 1867.92 907 1867.82 907 1867.71C907 1867.6 907 1867.5 907 1867.39C907 1867.29 907 1867.18 907 1867.07C907 1866.97 907 1866.86 907 1866.75C907 1866.65 907 1866.54 907 1866.43C907 1866.33 907 1866.22 907 1866.11C907 1866 907 1865.9 907 1865.79C907 1865.68 907 1865.57 907 1865.47C907 1865.36 907 1865.25 907 1865.14C907 1865.04 907 1864.93 907 1864.82C907 1864.71 907 1864.6 907 1864.49C907 1864.39 907 1864.28 907 1864.17C907 1864.06 907 1863.95 907 1863.84C907 1863.73 907 1863.63 907 1863.52C907 1863.41 907 1863.3 907 1863.19C907 1863.08 907 1862.97 907 1862.86C907 1862.75 907 1862.64 907 1862.53C907 1862.42 907 1862.31 907 1862.2C907 1862.09 907 1861.98 907 1861.87C907 1861.76 907 1861.65 907 1861.54C907 1861.43 907 1861.32 907 1861.21C907 1861.1 907 1860.99 907 1860.88C907 1860.77 907 1860.66 907 1860.55C907 1860.43 907 1860.32 907 1860.21C907 1860.1 907 1859.99 907 1859.88C907 1859.77 907 1859.66 907 1859.54C907 1859.43 907 1859.32 907 1859.21C907 1859.1 907 1858.98 907 1858.87C907 1858.76 907 1858.65 907 1858.54C907 1858.42 907 1858.31 907 1858.2C907 1858.09 907 1857.97 907 1857.86C907 1857.75 907 1857.63 907 1857.52C907 1857.41 907 1857.29 907 1857.18C907 1857.07 907 1856.95 907 1856.84C907 1856.73 907 1856.61 907 1856.5C907 1856.39 907 1856.27 907 1856.16C907 1856.05 907 1855.93 907 1855.82C907 1855.7 907 1855.59 907 1855.48C907 1855.36 907 1855.25 907 1855.13C907 1855.02 907 1854.9 907 1854.79C907 1854.67 907 1854.56 907 1854.44C907 1854.33 907 1854.21 907 1854.1C907 1853.98 907 1853.87 907 1853.75C907 1853.64 907 1853.52 907 1853.41C907 1853.29 907 1853.18 907 1853.06C907 1852.94 907 1852.83 907 1852.71C907 1852.6 907 1852.48 907 1852.36C907 1852.25 907 1852.13 907 1852.02C907 1851.9 907 1851.78 907 1851.67C907 1851.55 907 1851.43 907 1851.32C907 1851.2 907 1851.08 907 1850.97C907 1850.85 907 1850.73 907 1850.61C907 1850.5 907 1850.38 907 1850.26C907 1850.14 907 1850.03 907 1849.91C907 1849.79 907 1849.67 907 1849.56C907 1849.44 907 1849.32 907 1849.2C907 1849.08 907 1848.97 907 1848.85C907 1848.73 907 1848.61 907 1848.49C907 1848.38 907 1848.26 907 1848.14C907 1848.02 907 1847.9 907 1847.78C907 1847.66 907 1847.54 907 1847.43C907 1847.31 907 1847.19 907 1847.07C907 1846.95 907 1846.83 907 1846.71C907 1846.59 907 1846.47 907 1846.35C907 1846.23 907 1846.11 907 1845.99C907 1845.87 907 1845.75 907 1845.63C907 1845.51 907 1845.39 907 1845.27C907 1845.15 907 1845.03 907 1844.91C907 1844.79 907 1844.67 907 1844.55C907 1844.43 907 1844.31 907 1844.19C907 1844.07 907 1843.95 907 1843.83C907 1843.71 907 1843.59 907 1843.46C907 1843.34 907 1843.22 907 1843.1C907 1842.98 907 1842.86 907 1842.74C907 1842.62 907 1842.49 907 1842.37C907 1842.25 907 1842.13 907 1842.01C907 1841.89 907 1841.76 907 1841.64C907 1841.52 907 1841.4 907 1841.27C907 1841.15 907 1841.03 907 1840.91C907 1840.79 907 1840.66 907 1840.54C907 1840.42 907 1840.3 907 1840.17C907 1840.05 907 1839.93 907 1839.8C907 1839.68 907 1839.56 907 1839.44C907 1839.31 907 1839.19 907 1839.07C907 1838.94 907 1838.82 907 1838.7C907 1838.57 907 1838.45 907 1838.32C907 1838.2 907 1838.08 907 1837.95C907 1837.83 907 1837.71 907 1837.58C907 1837.46 907 1837.33 907 1837.21C907 1837.09 907 1836.96 907 1836.84C907 1836.71 907 1836.59 907 1836.46C907 1836.34 907 1836.21 907 1836.09C907 1835.96 907 1835.84 907 1835.71C907 1835.59 907 1835.47 907 1835.34C907 1835.21 907 1835.09 907 1834.96C907 1834.84 907 1834.71 907 1834.59C907 1834.46 907 1834.34 907 1834.21C907 1834.09 907 1833.96 907 1833.84C907 1833.71 907 1833.58 907 1833.46C907 1833.33 907 1833.21 907 1833.08C907 1832.95 907 1832.83 907 1832.7C907 1832.57 907 1832.45 907 1832.32C907 1832.2 907 1832.07 907 1831.94C907 1831.82 907 1831.69 907 1831.56C907 1831.44 907 1831.31 907 1831.18C907 1831.06 907 1830.93 907 1830.8C907 1830.67 907 1830.55 907 1830.42C907 1830.29 907 1830.16 907 1830.04C907 1829.91 907 1829.78 907 1829.65C907 1829.53 907 1829.4 907 1829.27C907 1829.14 907 1829.02 907 1828.89C907 1828.76 907 1828.63 907 1828.5C907 1828.38 907 1828.25 907 1828.12C907 1827.99 907 1827.86 907 1827.74C907 1827.61 907 1827.48 907 1827.35C907 1827.22 907 1827.09 907 1826.96C907 1826.84 907 1826.71 907 1826.58C907 1826.45 907 1826.32 907 1826.19C907 1826.06 907 1825.93 907 1825.8C907 1825.67 907 1825.54 907 1825.42C907 1825.29 907 1825.16 907 1825.03C907 1824.9 907 1824.77 907 1824.64C907 1824.51 907 1824.38 907 1824.25C907 1824.12 907 1823.99 907 1823.86C907 1823.73 907 1823.6 907 1823.47C907 1823.34 907 1823.21 907 1823.08C907 1822.95 907 1822.82 907 1822.69C907 1822.56 907 1822.43 907 1822.3C907 1822.17 907 1822.04 907 1821.9C907 1821.77 907 1821.64 907 1821.51C907 1821.38 907 1821.25 907 1821.12C907 1820.99 907 1820.86 907 1820.73C907 1820.6 907 1820.46 907 1820.33C907 1820.2 907 1820.07 907 1819.94C907 1819.81 907 1819.68 907 1819.54C907 1819.41 907 1819.28 907 1819.15C907 1819.02 907 1818.89 907 1818.75C907 1818.62 907 1818.49 907 1818.36C907 1818.23 907 1818.09 907 1817.96C907 1817.83 907 1817.7 907 1817.56C907 1817.43 907 1817.3 907 1817.17C907 1817.03 907 1816.9 907 1816.77C907 1816.64 907 1816.5 907 1816.37C907 1816.24 907 1816.11 907 1815.97C907 1815.84 907 1815.71 907 1815.57C907 1815.44 907 1815.31 907 1815.18C907 1815.04 907 1814.91 907 1814.78C907 1814.64 907 1814.51 907 1814.38C907 1814.24 907 1814.11 907 1813.97C907 1813.84 907 1813.71 907 1813.57C907 1813.44 907 1813.31 907 1813.17C907 1813.04 907 1812.9 907 1812.77C907 1812.64 907 1812.5 907 1812.37C907 1812.23 907 1812.1 907 1811.97C907 1811.83 907 1811.7 907 1811.56C907 1811.43 907 1811.29 907 1811.16C907 1811.03 907 1810.89 907 1810.76C907 1810.62 907 1810.49 907 1810.35C907 1810.22 907 1810.08 907 1809.95C907 1809.81 907 1809.68 907 1809.54C907 1809.41 907 1809.27 907 1809.14C907 1809 907 1808.87 907 1808.73C907 1808.6 907 1808.46 907 1808.33C907 1808.19 907 1808.06 907 1807.92C907 1807.78 907 1807.65 907 1807.51C907 1807.38 907 1807.24 907 1807.11C907 1806.97 907 1806.83 907 1806.7C907 1806.56 907 1806.43 907 1806.29C907 1806.15 907 1806.02 907 1805.88C907 1805.75 907 1805.61 907 1805.47C907 1805.34 907 1805.2 907 1805.06C907 1804.93 907 1804.79 907 1804.65C907 1804.52 907 1804.38 907 1804.25C907 1804.11 907 1803.97 907 1803.84C907 1803.7 907 1803.56 907 1803.42C907 1803.29 907 1803.15 907 1803.01C907 1802.88 907 1802.74 907 1802.6C907 1802.47 907 1802.33 907 1802.19C907 1802.05 907 1801.92 907 1801.78C907 1801.64 907 1801.5 907 1801.37C907 1801.23 907 1801.09 907 1800.95C907 1800.82 907 1800.68 907 1800.54C907 1800.4 907 1800.27 907 1800.13C907 1799.99 907 1799.85 907 1799.71C907 1799.58 907 1799.44 907 1799.3C907 1799.16 907 1799.02 907 1798.89C907 1798.75 907 1798.61 907 1798.47C907 1798.33 907 1798.2 907 1798.06C907 1797.92 907 1797.78 907 1797.64C907 1797.5 907 1797.36 907 1797.23C907 1797.09 907 1796.95 907 1796.81C907 1796.67 907 1796.53 907 1796.39C907 1796.26 907 1796.12 907 1795.98C907 1795.84 907 1795.7 907 1795.56C907 1795.42 907 1795.28 907 1795.14C907 1795 907 1794.87 907 1794.73C907 1794.59 907 1794.45 907 1794.31C907 1794.17 907 1794.03 907 1793.89C907 1793.75 907 1793.61 907 1793.47C907 1793.33 907 1793.19 907 1793.05C907 1792.91 907 1792.77 907 1792.63C907 1792.49 907 1792.35 907 1792.21C907 1792.08 907 1791.94 907 1791.8C907 1791.66 907 1791.52 907 1791.38C907 1791.24 907 1791.1 907 1790.96C907 1790.81 907 1790.67 907 1790.53C907 1790.39 907 1790.25 907 1790.11C907 1789.97 907 1789.83 907 1789.69C907 1789.55 907 1789.41 907 1789.27C907 1789.13 907 1788.99 907 1788.85C907 1788.71 907 1788.57 907 1788.43C907 1788.29 907 1788.15 907 1788.01C907 1787.86 907 1787.72 907 1787.58C907 1787.44 907 1787.3 907 1787.16C907 1787.02 907 1786.88 907 1786.74C907 1786.6 907 1786.45 907 1786.31C907 1786.17 907 1786.03 907 1785.89C907 1785.75 907 1785.61 907 1785.47C907 1785.32 907 1785.18 907 1785.04C907 1784.9 907 1784.76 907 1784.62C907 1784.48 907 1784.33 907 1784.19C907 1784.05 907 1783.91 907 1783.77C907 1783.63 907 1783.48 907 1783.34C907 1783.2 907 1783.06 907 1782.92C907 1782.78 907 1782.63 907 1782.49C907 1782.35 907 1782.21 907 1782.07C907 1781.92 907 1781.78 907 1781.64C907 1781.5 907 1781.36 907 1781.21C907 1781.07 907 1780.93 907 1780.79C907 1780.64 907 1780.5 907 1780.36C907 1780.22 907 1780.07 907 1779.93C907 1779.79 907 1779.65 907 1779.5C907 1779.36 907 1779.22 907 1779.08C907 1778.93 907 1778.79 907 1778.65C907 1778.51 907 1778.36 907 1778.22C907 1778.08 907 1777.94 907 1777.79C907 1777.65 907 1777.51 907 1777.36C907 1777.22 907 1777.08 907 1776.93C907 1776.79 907 1776.65 907 1776.51C907 1776.36 907 1776.22 907 1776.08C907 1775.93 907 1775.79 907 1775.65C907 1775.5 907 1775.36 907 1775.22C907 1775.07 907 1774.93 907 1774.79C907 1774.64 907 1774.5 907 1774.36C907 1774.21 907 1774.07 907 1773.93C907 1773.78 907 1773.64 907 1773.5C907 1773.35 907 1773.21 907 1773.07C907 1772.92 907 1772.78 907 1772.63C907 1772.49 907 1772.35 907 1772.2C907 1772.06 907 1771.92 907 1771.77C907 1771.63 907 1771.48 907 1771.34C907 1771.2 907 1771.05 907 1770.91C907 1770.76 907 1770.62 907 1770.48C907 1770.33 907 1770.19 907 1770.04C907 1769.9 907 1769.76 907 1769.61C907 1769.47 907 1769.32 907 1769.18C907 1769.03 907 1768.89 907 1768.75C907 1768.6 907 1768.46 907 1768.31C907 1768.17 907 1768.02 907 1767.88C907 1767.74 907 1767.59 907 1767.45C907 1767.3 907 1767.16 907 1767.01C907 1766.87 907 1766.72 907 1766.58C907 1766.43 907 1766.29 907 1766.14C907 1766 907 1765.86 907 1765.71C907 1765.57 907 1765.42 907 1765.28C907 1765.13 907 1764.99 907 1764.84C907 1764.7 907 1764.55 907 1764.41C907 1764.26 907 1764.12 907 1763.97C907 1763.83 907 1763.68 907 1763.54C907 1763.39 907 1763.25 907 1763.1C907 1762.96 907 1762.81 907 1762.67C907 1762.52 907 1762.38 907 1762.23C907 1762.09 907 1761.94 907 1761.8C907 1761.65 907 1761.51 907 1761.36C907 1761.22 907 1761.07 907 1760.92C907 1760.78 907 1760.63 907 1760.49C907 1760.34 907 1760.2 907 1760.05C907 1759.91 907 1759.76 907 1759.62C907 1759.47 907 1759.33 907 1759.18C907 1759.03 907 1758.89 907 1758.74C907 1758.6 907 1758.45 907 1758.31C907 1758.16 907 1758.01 907 1757.87C907 1757.72 907 1757.58 907 1757.43C907 1757.29 907 1757.14 907 1756.99C907 1756.85 907 1756.7 907 1756.56C907 1756.41 907 1756.27 907 1756.12C907 1755.97 907 1755.83 907 1755.68C907 1755.54 907 1755.39 907 1755.24C907 1755.1 907 1754.95 907 1754.81C907 1754.66 907 1754.52 907 1754.37C907 1754.22 907 1754.08 907 1753.93C907 1753.78 907 1753.64 907 1753.49C907 1753.35 907 1753.2 907 1753.05C907 1752.91 907 1752.76 907 1752.62C907 1752.47 907 1752.32 907 1752.18C907 1752.03 907 1751.89 907 1751.74C907 1751.59 907 1751.45 907 1751.3C907 1751.15 907 1751.01 907 1750.86C907 1750.71 907 1750.57 907 1750.42C907 1750.28 907 1750.13 907 1749.98C907 1749.84 907 1749.69 907 1749.54C907 1749.4 907 1749.25 907 1749.1C907 1748.96 907 1748.81 907 1748.67C907 1748.52 907 1748.37 907 1748.23C907 1748.08 907 1747.93 907 1747.79C907 1747.64 907 1747.49 907 1747.35C907 1747.2 907 1747.05 907 1746.91C907 1746.76 907 1746.61 907 1746.47C907 1746.32 907 1746.17 907 1746.03C907 1745.88 907 1745.73 907 1745.59C907 1745.44 907 1745.29 907 1745.15C907 1745 907 1744.85 907 1744.71C907 1744.56 907 1744.41 907 1744.27C907 1744.12 907 1743.97 907 1743.83C907 1743.68 907 1743.53 907 1743.39C907 1743.24 907 1743.09 907 1742.95C907 1742.8 907 1742.65 907 1742.5C907 1742.36 907 1742.21 907 1742.06C907 1741.92 907 1741.77 907 1741.62C907 1741.48 907 1741.33 907 1741.18C907 1741.04 907 1740.89 907 1740.74C907 1740.6 907 1740.45 907 1740.3C907 1740.15 907 1740.01 907 1739.86C907 1739.71 907 1739.57 907 1739.42C907 1739.27 907 1739.13 907 1738.98C907 1738.83 907 1738.68 907 1738.54C907 1738.39 907 1738.24 907 1738.1C907 1737.95 907 1737.8 907 1737.66C907 1737.51 907 1737.36 907 1737.21C907 1737.07 907 1736.92 907 1736.77C907 1736.63 907 1736.48 907 1736.33C907 1736.18 907 1736.04 907 1735.89C907 1735.74 907 1735.6 907 1735.45C907 1735.3 907 1735.15 907 1735.01C907 1734.86 907 1734.71 907 1734.57C907 1734.42 907 1734.27 907 1734.12C907 1733.98 907 1733.83 907 1733.68C907 1733.54 907 1733.39 907 1733.24C907 1733.09 907 1732.95 907 1732.8C907 1732.65 907 1732.51 907 1732.36C907 1732.21 907 1732.06 907 1731.92C907 1731.77 907 1731.62 907 1731.48C907 1731.33 907 1731.18 907 1731.03C907 1730.89 907 1730.74 907 1730.59C907 1730.44 907 1730.3 907 1730.15C907 1730 907 1729.86 907 1729.71C907 1729.56 907 1729.41 907 1729.27C907 1729.12 907 1728.97 907 1728.83C907 1728.68 907 1728.53 907 1728.38C907 1728.24 907 1728.09 907 1727.94C907 1727.8 907 1727.65 907 1727.5C907 1727.35 907 1727.21 907 1727.06C907 1726.91 907 1726.76 907 1726.62C907 1726.47 907 1726.32 907 1726.18C907 1726.03 907 1725.88 907 1725.73C907 1725.59 907 1725.44 907 1725.29C907 1725.15 907 1725 907 1724.85C907 1724.7 907 1724.56 907 1724.41C907 1724.26 907 1724.12 907 1723.97C907 1723.82 907 1723.67 907 1723.53C907 1723.38 907 1723.23 907 1723.08C907 1722.94 907 1722.79 907 1722.64C907 1722.5 907 1722.35 907 1722.2C907 1722.05 907 1721.91 907 1721.76C907 1721.61 907 1721.47 907 1721.32C907 1721.17 907 1721.02 907 1720.88C907 1720.73 907 1720.58 907 1720.44C907 1720.29 907 1720.14 907 1719.99C907 1719.85 907 1719.7 907 1719.55C907 1719.41 907 1719.26 907 1719.11C907 1718.97 907 1718.82 907 1718.67C907 1718.52 907 1718.38 907 1718.23C907 1718.08 907 1717.94 907 1717.79C907 1717.64 907 1717.49 907 1717.35C907 1717.2 907 1717.05 907 1716.91C907 1716.76 907 1716.61 907 1716.47C907 1716.32 907 1716.17 907 1716.02C907 1715.88 907 1715.73 907 1715.58C907 1715.44 907 1715.29 907 1715.14C907 1715 907 1714.85 907 1714.7C907 1714.56 907 1714.41 907 1714.26C907 1714.12 907 1713.97 907 1713.82C907 1713.67 907 1713.53 907 1713.38C907 1713.23 907 1713.09 907 1712.94C907 1712.79 907 1712.65 907 1712.5C907 1712.35 907 1712.21 907 1712.06C907 1711.91 907 1711.77 907 1711.62C907 1711.47 907 1711.33 907 1711.18C907 1711.03 907 1710.89 907 1710.74C907 1710.59 907 1710.45 907 1710.3C907 1710.15 907 1710.01 907 1709.86C907 1709.71 907 1709.57 907 1709.42C907 1709.27 907 1709.13 907 1708.98C907 1708.83 907 1708.69 907 1708.54C907 1708.39 907 1708.25 907 1708.1C907 1707.95 907 1707.81 907 1707.66C907 1707.51 907 1707.37 907 1707.22C907 1707.07 907 1706.93 907 1706.78C907 1706.64 907 1706.49 907 1706.34C907 1706.2 907 1706.05 907 1705.9C907 1705.76 907 1705.61 907 1705.46C907 1705.32 907 1705.17 907 1705.03C907 1704.88 907 1704.73 907 1704.59C907 1704.44 907 1704.29 907 1704.15C907 1704 907 1703.86 907 1703.71C907 1703.56 907 1703.42 907 1703.27C907 1703.12 907 1702.98 907 1702.83C907 1702.69 907 1702.54 907 1702.39C907 1702.25 907 1702.1 907 1701.96C907 1701.81 907 1701.66 907 1701.52C907 1701.37 907 1701.23 907 1701.08C907 1700.93 907 1700.79 907 1700.64C907 1700.5 907 1700.35 907 1700.21C907 1700.06 907 1699.91 907 1699.77C907 1699.62 907 1699.48 907 1699.33C907 1699.18 907 1699.04 907 1698.89C907 1698.75 907 1698.6 907 1698.46C907 1698.31 907 1698.16 907 1698.02C907 1697.87 907 1697.73 907 1697.58C907 1697.44 907 1697.29 907 1697.15C907 1697 907 1696.85 907 1696.71C907 1696.56 907 1696.42 907 1696.27C907 1696.13 907 1695.98 907 1695.84C907 1695.69 907 1695.55 907 1695.4C907 1695.25 907 1695.11 907 1694.96C907 1694.82 907 1694.67 907 1694.53C907 1694.38 907 1694.24 907 1694.09C907 1693.95 907 1693.8 907 1693.66C907 1693.51 907 1693.37 907 1693.22C907 1693.08 907 1692.93 907 1692.79C907 1692.64 907 1692.5 907 1692.35C907 1692.21 907 1692.06 907 1691.92C907 1691.77 907 1691.63 907 1691.48C907 1691.34 907 1691.19 907 1691.05C907 1690.9 907 1690.76 907 1690.61C907 1690.47 907 1690.32 907 1690.18C907 1690.03 907 1689.89 907 1689.75C907 1689.6 907 1689.46 907 1689.31C907 1689.17 907 1689.02 907 1688.88C907 1688.73 907 1688.59 907 1688.44C907 1688.3 907 1688.16 907 1688.01C907 1687.87 907 1687.72 907 1687.58C907 1687.43 907 1687.29 907 1687.15C907 1687 907 1686.86 907 1686.71C907 1686.57 907 1686.42 907 1686.28C907 1686.14 907 1685.99 907 1685.85C907 1685.7 907 1685.56 907 1685.42C907 1685.27 907 1685.13 907 1684.98C907 1684.84 907 1684.7 907 1684.55C907 1684.41 907 1684.26 907 1684.12C907 1683.98 907 1683.83 907 1683.69C907 1683.55 907 1683.4 907 1683.26C907 1683.11 907 1682.97 907 1682.83C907 1682.68 907 1682.54 907 1682.4C907 1682.25 907 1682.11 907 1681.97C907 1681.82 907 1681.68 907 1681.54C907 1681.39 907 1681.25 907 1681.11C907 1680.96 907 1680.82 907 1680.68C907 1680.53 907 1680.39 907 1680.25C907 1680.1 907 1679.96 907 1679.82C907 1679.67 907 1679.53 907 1679.39C907 1679.25 907 1679.1 907 1678.96C907 1678.82 907 1678.67 907 1678.53C907 1678.39 907 1678.25 907 1678.1H857ZM857 1882.4C857 1923.8 892.276 1944.55 920.493 1954.17C950.638 1964.45 986.544 1967.46 1013.48 1966.94L1012.52 1916.95C988.956 1917.41 959.363 1914.6 936.633 1906.85C911.975 1898.44 907 1888.93 907 1882.4H857Z" fill="url(#paint18_linear_255_89)"/>
<g filter="url(#filter0_f_255_89)">
<path d="M1146.42 1368.84C1085.68 1311.02 1090.43 1213.64 1068.55 1247.93C1047.13 1300.45 1056.21 1321.1 1086.03 1380.52C1109.89 1428.05 1085.97 1468.12 1069.48 1545.15C1110.42 1506.68 1188.23 1408.63 1146.42 1368.84Z" fill="url(#paint19_linear_255_89)"/>
</g>
<g filter="url(#filter1_f_255_89)">
<path d="M1134.99 1248C1100.19 1160.4 1143.49 1106.83 1169.49 1091C1138.49 1138.5 1182.49 1195 1200.49 1259C1214.89 1310.2 1174.82 1386 1152.99 1417.5C1161.49 1397.5 1169.79 1335.6 1134.99 1248Z" fill="url(#paint20_linear_255_89)"/>
</g>
<g filter="url(#filter2_f_255_89)">
<path d="M1202.06 1443.5C1167.26 1355.9 1120.55 1284.83 1146.55 1269C1115.55 1316.5 1221.54 1344.5 1239.54 1408.5C1249.99 1445.66 1231.75 1495.78 1212.62 1532.52C1209.54 1540.89 1205.23 1547.25 1201.23 1552.78C1197.97 1558.16 1194.85 1562.94 1192.04 1567C1194.02 1562.36 1197.49 1557.93 1201.23 1552.78C1204.91 1546.7 1208.78 1539.88 1212.62 1532.52C1219.02 1515.09 1220.11 1488.94 1202.06 1443.5Z" fill="url(#paint21_linear_255_89)"/>
</g>
<path d="M640 1066.3H1083L969.5 1482.11H742.5L640 1066.3Z" fill="url(#paint22_linear_255_89)"/>
<path d="M1083 1066.3C1083 1084.7 983.831 1099.61 861.5 1099.61C739.169 1099.61 640 1084.7 640 1066.3C640 1047.91 739.169 1033 861.5 1033C983.831 1033 1083 1047.91 1083 1066.3Z" fill="url(#paint23_linear_255_89)"/>
<path d="M970 1482.44C970 1504.84 918.96 1523 856 1523C793.04 1523 742 1504.84 742 1482.44C742 1460.04 793.04 1441.88 856 1441.88C918.96 1441.88 970 1460.04 970 1482.44Z" fill="url(#paint24_linear_255_89)"/>
<ellipse cx="862" cy="1064" rx="206" ry="27.6985" fill="url(#paint25_linear_255_89)"/>
<path d="M758 516H961V1088.3C961 1088.3 902 1096 863 1096C824 1096 758 1088 758 1088V516Z" fill="url(#paint26_radial_255_89)"/>
<path d="M961 515.5C961 571.557 915.557 617 859.5 617C803.443 617 758 571.557 758 515.5C758 459.443 803.443 414 859.5 414C915.557 414 961 459.443 961 515.5Z" fill="url(#paint27_radial_255_89)"/>
<path d="M885 794C885 755.892 915.892 725 954 725H1084C1122.11 725 1153 755.892 1153 794C1153 832.108 1122.11 863 1084 863H954C915.892 863 885 832.108 885 794Z" fill="url(#paint28_radial_255_89)"/>
<path d="M1084 863C1045.89 863 1015 832.108 1015 794V664C1015 625.892 1045.89 595 1084 595C1122.11 595 1153 625.892 1153 664V794C1153 832.108 1122.11 863 1084 863Z" fill="url(#paint29_radial_255_89)"/>
<path d="M808.749 430.788C809.737 429.823 809.755 428.24 808.79 427.252C807.825 426.265 806.242 426.247 805.254 427.212L808.749 430.788ZM787.645 638.232L790.007 637.412L787.645 638.232ZM787.645 887.223L790.071 886.617L787.645 887.223ZM805.254 427.212C794.312 437.909 780.337 464.914 773.563 501.99C766.764 539.197 767.15 586.851 785.284 639.052L790.007 637.412C772.182 586.098 771.823 539.325 778.481 502.889C785.163 466.321 798.846 440.468 808.749 430.788L805.254 427.212ZM785.284 639.052C796.953 672.644 790.888 709.27 784.767 750.677C778.676 791.886 772.636 837.429 785.22 887.828L790.071 886.617C777.75 837.272 783.623 792.612 789.714 751.408C795.775 710.401 802.163 672.405 790.007 637.412L785.284 639.052ZM785.22 887.828C796.777 934.119 794.825 981.48 789.821 1018.72C787.321 1037.32 784.064 1053.37 781.366 1065.45C780.016 1071.5 778.81 1076.55 777.902 1080.46C777.017 1084.26 776.365 1087.19 776.221 1088.77L781.201 1089.23C781.305 1088.08 781.848 1085.57 782.772 1081.59C783.672 1077.71 784.89 1072.62 786.246 1066.54C788.962 1054.37 792.251 1038.18 794.776 1019.38C799.824 981.822 801.841 933.761 790.071 886.617L785.22 887.828Z" fill="#204C2C"/>
<path d="M895.249 422.782C894.265 421.814 894.251 420.232 895.219 419.247C896.188 418.263 897.77 418.249 898.755 419.218L895.249 422.782ZM916.359 631.5L918.722 632.316L918.722 632.316L916.359 631.5ZM916.359 882L918.785 882.602L916.359 882ZM898.755 419.218C909.695 429.976 923.668 457.141 930.442 494.438C937.239 531.865 936.853 579.803 918.722 632.316L913.995 630.684C931.822 579.055 932.181 531.993 925.522 495.331C918.84 458.538 905.154 432.524 895.249 422.782L898.755 419.218ZM918.722 632.316C907.05 666.119 913.116 702.976 919.237 744.631C925.328 786.09 931.367 831.904 918.785 882.602L913.932 881.398C926.254 831.748 920.38 786.811 914.29 745.358C908.228 704.1 901.842 665.881 913.995 630.684L918.722 632.316ZM918.785 882.602C907.225 929.182 908.981 978.088 913.791 1016.82C916.194 1036.17 919.354 1052.94 921.978 1065.57C923.291 1071.89 924.467 1077.16 925.353 1081.23C926.218 1085.2 926.85 1088.2 926.992 1089.78L922.012 1090.22C921.906 1089.05 921.368 1086.43 920.468 1082.29C919.588 1078.25 918.402 1072.94 917.082 1066.59C914.442 1053.87 911.254 1036.96 908.829 1017.43C903.983 978.412 902.164 928.818 913.932 881.398L918.785 882.602Z" fill="#204C2C"/>
<path d="M1110 601C1124.3 608.507 1147.93 639.95 1123.28 678.089C1106.94 703.358 1140.35 733.077 1123.28 769.827C1107.28 804.251 1128.18 841.972 1128.86 846" stroke="#204C2C" stroke-width="5" stroke-linecap="round"/>
<path d="M1081 594C1088.15 602.182 1099.97 636.448 1087.64 678.011C1079.47 705.549 1096.18 737.937 1087.64 777.987C1079.64 815.502 1090.09 856.61 1090.43 861" stroke="#204C2C" stroke-width="5" stroke-linecap="round"/>
<path d="M1054 603C1042.68 610.906 1023.97 644.017 1043.49 684.179C1056.43 710.789 1029.97 742.085 1043.49 780.785C1056.16 817.036 1039.61 856.758 1039.07 861" stroke="#204C2C" stroke-width="5" stroke-linecap="round"/>
<path d="M856.754 413.095C856.15 411.853 856.666 410.357 857.907 409.752C859.149 409.148 860.645 409.664 861.25 410.905L856.754 413.095ZM868.404 625.488L870.87 625.896L868.404 625.488ZM868.404 879.545L865.921 879.25L868.404 879.545ZM861.25 410.905C866.52 421.728 873.266 449.074 876.54 486.717C879.824 524.47 879.641 572.856 870.87 625.896L865.937 625.08C874.632 572.5 874.811 524.537 871.559 487.15C868.297 449.651 861.609 423.063 856.754 413.095L861.25 410.905ZM870.87 625.896C865.143 660.534 868.129 698.276 871.094 740.418C874.053 782.465 876.965 828.695 870.886 879.84L865.921 879.25C871.939 828.621 869.065 782.813 866.106 740.769C863.155 698.822 860.093 660.423 865.937 625.08L870.87 625.896ZM870.886 879.84C859.587 974.911 874.501 1082.36 875 1093.89L870.004 1094.11C869.539 1083.33 854.559 974.847 865.921 879.25L870.886 879.84Z" fill="#204C2C"/>
<path d="M841.088 415.378C841.849 414.226 841.532 412.675 840.38 411.914C839.228 411.153 837.677 411.47 836.916 412.622L841.088 415.378ZM826.282 626.862L823.843 627.41L823.843 627.41L826.282 626.862ZM826.282 880.173L823.814 880.572L826.282 880.173ZM836.916 412.622C833.286 418.115 829.218 427.71 825.511 440.5C821.789 453.343 818.386 469.566 816.161 488.42C811.71 526.129 811.959 574.449 823.843 627.41L828.721 626.315C816.975 573.965 816.734 526.218 821.126 489.006C823.322 470.401 826.674 454.449 830.314 441.892C833.968 429.281 837.869 420.25 841.088 415.378L836.916 412.622ZM823.843 627.41C831.565 661.825 827.543 699.339 823.527 741.393C819.524 783.316 815.575 829.486 823.814 880.572L828.75 879.775C820.623 829.386 824.502 783.787 828.505 741.868C832.495 700.078 836.655 661.674 828.721 626.315L823.843 627.41ZM823.814 880.572C839.087 975.272 819.188 1080.22 818.506 1091.85L823.498 1092.15C824.12 1081.53 844.137 975.185 828.75 879.775L823.814 880.572Z" fill="#204C2C"/>
<path d="M743.337 483.724L764.106 496.506L758.33 502.958L743.337 483.724Z" fill="#204C2C"/>
<path d="M740.052 673.375L761.513 661.792L764.208 670.022L740.052 673.375Z" fill="#204C2C"/>
<path d="M741.855 853.532L765.869 857.781L762.87 865.906L741.855 853.532Z" fill="#204C2C"/>
<path d="M769.733 555.69L793.748 559.939L790.749 568.064L769.733 555.69Z" fill="#204C2C"/>
<path d="M917.643 476.21L899.771 492.804L895.099 485.512L917.643 476.21Z" fill="#204C2C"/>
<path d="M974.643 529.21L956.771 545.804L952.099 538.512L974.643 529.21Z" fill="#204C2C"/>
<path d="M835.316 483.745L856.156 496.411L850.416 502.896L835.316 483.745Z" fill="#204C2C"/>
<path d="M835.316 674.745L856.156 687.411L850.416 693.896L835.316 674.745Z" fill="#204C2C"/>
<path d="M832.782 872.95L850.321 856.005L855.137 863.203L832.782 872.95Z" fill="#204C2C"/>
<path d="M911.883 621.164L887.783 617.429L890.608 609.242L911.883 621.164Z" fill="#204C2C"/>
<path d="M913.378 794.958L890.139 802.352L889.02 793.765L913.378 794.958Z" fill="#204C2C"/>
<path d="M977.378 649.958L954.139 657.352L953.02 648.765L977.378 649.958Z" fill="#204C2C"/>
<path d="M978.378 1013.96L955.139 1021.35L954.02 1012.76L978.378 1013.96Z" fill="#204C2C"/>
<path d="M976.901 916.41L952.633 913.998L955.007 905.669L976.901 916.41Z" fill="#204C2C"/>
<path d="M1001.45 772.382L982.507 787.735L978.336 780.145L1001.45 772.382Z" fill="#204C2C"/>
<path d="M1124.45 632.382L1105.51 647.735L1101.34 640.145L1124.45 632.382Z" fill="#204C2C"/>
<path d="M1003.86 674.098L1026.02 684.294L1021.06 691.393L1003.86 674.098Z" fill="#204C2C"/>
<path d="M1047.86 659.098L1070.02 669.294L1065.06 676.393L1047.86 659.098Z" fill="#204C2C"/>
<path d="M1048.77 871.388L1061.3 850.466L1067.82 856.164L1048.77 871.388Z" fill="#204C2C"/>
<path d="M980.514 712.151L994.744 731.956L986.925 735.68L980.514 712.151Z" fill="#204C2C"/>
<path d="M1167.24 792.62L1144.2 800.6L1142.86 792.043L1167.24 792.62Z" fill="#204C2C"/>
<path d="M1057.57 753.504L1077.47 767.59L1071.3 773.659L1057.57 753.504Z" fill="#204C2C"/>
<path d="M1168.39 699.94L1145.34 707.92L1144.01 699.364L1168.39 699.94Z" fill="#204C2C"/>
<path d="M1023.38 830.934L1000.34 822.937L1004.58 815.39L1023.38 830.934Z" fill="#204C2C"/>
<path d="M903.792 922.506L883.303 909.279L889.218 902.953L903.792 922.506Z" fill="#204C2C"/>
<path d="M778.52 792.159L800.02 780.647L802.687 788.886L778.52 792.159Z" fill="#204C2C"/>
<path d="M786.777 948.34L810.58 943.03L810.935 951.683L786.777 948.34Z" fill="#204C2C"/>
<path d="M740.605 1045.31L761.103 1032.1L764.428 1040.1L740.605 1045.31Z" fill="#204C2C"/>
<path d="M888.274 911.611L887.86 911.332L887.985 911.147C887.833 911.166 887.715 911.169 887.631 911.158C887.547 911.146 887.451 911.103 887.342 911.03C887.235 910.958 887.164 910.881 887.13 910.799C887.099 910.718 887.108 910.64 887.158 910.566C887.208 910.491 887.296 910.446 887.421 910.429C887.549 910.412 887.678 910.421 887.807 910.457C887.939 910.492 888.052 910.527 888.145 910.563C888.239 910.597 888.299 910.623 888.326 910.641L888.36 910.59C888.458 910.445 888.433 910.322 888.283 910.221C888.18 910.151 888.071 910.104 887.957 910.079C887.845 910.055 887.749 910.056 887.667 910.082L887.638 910.002C887.902 909.887 888.191 909.936 888.507 910.149C888.587 910.203 888.641 910.266 888.669 910.336C888.7 910.406 888.708 910.47 888.694 910.528C888.682 910.588 888.657 910.646 888.618 910.703L888.196 911.329C888.183 911.349 888.174 911.366 888.171 911.379C888.167 911.393 888.171 911.411 888.183 911.435C888.198 911.459 888.225 911.484 888.266 911.511L888.317 911.546L888.274 911.611ZM888.073 911.017L888.263 910.734C888.098 910.656 887.928 910.609 887.753 910.592C887.578 910.576 887.463 910.608 887.408 910.69C887.386 910.723 887.386 910.764 887.407 910.815C887.432 910.865 887.473 910.909 887.53 910.948C887.59 910.988 887.674 911.014 887.782 911.027C887.892 911.038 887.989 911.034 888.073 911.017Z" fill="#1B4226"/>
<path d="M889.054 912.136L888.48 911.749L888.523 911.685L888.563 911.712C888.606 911.74 888.641 911.754 888.669 911.753C888.699 911.75 888.726 911.731 888.75 911.695L889.672 910.327C889.692 910.298 889.693 910.268 889.677 910.239C889.661 910.209 889.623 910.173 889.562 910.131L889.605 910.066C889.644 910.092 889.708 910.123 889.798 910.159C889.889 910.196 889.96 910.218 890.009 910.224L890.067 910.249L888.988 911.849C888.972 911.874 888.96 911.893 888.955 911.905C888.952 911.918 888.956 911.937 888.968 911.96C888.98 911.984 889.006 912.01 889.046 912.037L889.097 912.071L889.054 912.136Z" fill="#1B4226"/>
<path d="M890.648 910.863C890.692 910.893 890.717 910.927 890.725 910.966C890.734 911.006 890.726 911.044 890.701 911.081C890.677 911.117 890.638 911.135 890.585 911.135C890.533 911.134 890.485 911.118 890.441 911.089C890.399 911.06 890.374 911.026 890.364 910.986C890.357 910.947 890.365 910.911 890.388 910.877C890.412 910.841 890.45 910.824 890.503 910.823C890.557 910.822 890.605 910.835 890.648 910.863ZM889.876 912.69L889.296 912.299L889.339 912.235L889.385 912.265C889.437 912.3 889.474 912.315 889.497 912.31C889.522 912.307 889.544 912.29 889.565 912.259L890.034 911.563C890.054 911.533 890.056 911.504 890.039 911.475C890.025 911.446 889.987 911.41 889.924 911.367L889.968 911.302C890.006 911.328 890.071 911.356 890.162 911.386C890.256 911.415 890.33 911.434 890.384 911.441L890.441 911.466L889.81 912.403C889.793 912.428 889.782 912.446 889.777 912.459C889.774 912.472 889.778 912.491 889.79 912.514C889.801 912.538 889.827 912.563 889.868 912.59L889.919 912.625L889.876 912.69Z" fill="#1B4226"/>
<path fill-rule="evenodd" clip-rule="evenodd" d="M3840 0H3673V1360.5L3840 1464.99V0Z" fill="url(#paint30_linear_255_89)"/>
<defs>
<filter id="filter0_f_255_89" x="1036.81" y="1220.79" width="141.598" height="344.359" filterUnits="userSpaceOnUse" color-interpolation-filters="sRGB">
<feFlood flood-opacity="0" result="BackgroundImageFix"/>
<feBlend mode="normal" in="SourceGraphic" in2="BackgroundImageFix" result="shape"/>
<feGaussianBlur stdDeviation="10" result="effect1_foregroundBlur_255_89"/>
</filter>
<filter id="filter1_f_255_89" x="1102" y="1071" width="121.539" height="366.5" filterUnits="userSpaceOnUse" color-interpolation-filters="sRGB">
<feFlood flood-opacity="0" result="BackgroundImageFix"/>
<feBlend mode="normal" in="SourceGraphic" in2="BackgroundImageFix" result="shape"/>
<feGaussianBlur stdDeviation="10" result="effect1_foregroundBlur_255_89"/>
</filter>
<filter id="filter2_f_255_89" x="1119" y="1249" width="143.594" height="338" filterUnits="userSpaceOnUse" color-interpolation-filters="sRGB">
<feFlood flood-opacity="0" result="BackgroundImageFix"/>
<feBlend mode="normal" in="SourceGraphic" in2="BackgroundImageFix" result="shape"/>
<feGaussianBlur stdDeviation="10" result="effect1_foregroundBlur_255_89"/>
</filter>
<linearGradient id="paint0_linear_255_89" x1="1920" y1="0" x2="1920" y2="2160" gradientUnits="userSpaceOnUse">
<stop stop-color="#8AABB2"/>
<stop offset="1" stop-color="#45545A"/>
</linearGradient>
<radialGradient id="paint1_radial_255_89" cx="0" cy="0" r="1" gradientUnits="userSpaceOnUse" gradientTransform="translate(1920 1893) rotate(90) scale(553 2661.05)">
<stop stop-color="#46555B"/>
<stop offset="1" stop-color="#8AABB2"/>
</radialGradient>
<linearGradient id="paint2_linear_255_89" x1="360" y1="0" x2="360" y2="1994" gradientUnits="userSpaceOnUse">
<stop stop-color="#8AABB2"/>
<stop offset="1" stop-color="#2C343A"/>
</linearGradient>
<radialGradient id="paint3_radial_255_89" cx="0" cy="0" r="1" gradientUnits="userSpaceOnUse" gradientTransform="translate(2381 1637.5) rotate(90) scale(522.5 2833.9)">
<stop stop-color="#935B3C"/>
<stop offset="1" stop-color="#FFAF82"/>
</radialGradient>
<linearGradient id="paint4_linear_255_89" x1="2380" y1="93" x2="2380" y2="1782" gradientUnits="userSpaceOnUse">
<stop stop-color="#3C3C3C"/>
<stop offset="1" stop-color="#242424"/>
</linearGradient>
<radialGradient id="paint5_radial_255_89" cx="0" cy="0" r="1" gradientUnits="userSpaceOnUse" gradientTransform="translate(2378.12 937.5) rotate(90) scale(844.5 811.98)">
<stop offset="0.692708" stop-color="#1C1B1B"/>
<stop offset="1" stop-color="#262626"/>
</radialGradient>
<linearGradient id="paint6_linear_255_89" x1="2379.5" y1="1125" x2="2379.5" y2="1661" gradientUnits="userSpaceOnUse">
<stop stop-color="#2C2C2C"/>
<stop offset="1" stop-color="#191919"/>
</linearGradient>
<radialGradient id="paint7_radial_255_89" cx="0" cy="0" r="1" gradientUnits="userSpaceOnUse" gradientTransform="translate(3296 1700.5) rotate(-154.407) scale(738.456 1191.31)">
<stop offset="0.313452" stop-color="#2D2D2D"/>
<stop offset="1" stop-color="#171717"/>
</radialGradient>
<radialGradient id="paint8_radial_255_89" cx="0" cy="0" r="1" gradientUnits="userSpaceOnUse" gradientTransform="translate(1758 1750.5) rotate(-22.9366) scale(946.859 1527.52)">
<stop offset="0.0989075" stop-color="#212121"/>
<stop offset="1" stop-color="#171717"/>
</radialGradient>
<radialGradient id="paint9_radial_255_89" cx="0" cy="0" r="1" gradientUnits="userSpaceOnUse" gradientTransform="translate(3531 1813) rotate(90.0058) scale(147.573 172.368)">
<stop stop-color="#292929"/>
<stop offset="1" stop-color="#262626"/>
</radialGradient>
<radialGradient id="paint10_radial_255_89" cx="0" cy="0" r="1" gradientUnits="userSpaceOnUse" gradientTransform="translate(1639.5 1816) rotate(-44.5818) scale(532.819 981.861)">
<stop offset="0.313452" stop-color="#2D2D2D"/>
<stop offset="1" stop-color="#171717"/>
</radialGradient>
<radialGradient id="paint11_radial_255_89" cx="0" cy="0" r="1" gradientUnits="userSpaceOnUse" gradientTransform="translate(3489 1773) rotate(81.0029) scale(106.814 122.571)">
<stop stop-color="#272727"/>
<stop offset="1" stop-color="#1D1D1D"/>
</radialGradient>
<radialGradient id="paint12_radial_255_89" cx="0" cy="0" r="1" gradientUnits="userSpaceOnUse" gradientTransform="translate(1137.5 1980.5) rotate(90) scale(182 398.443)">
<stop stop-color="#111111"/>
<stop offset="1" stop-color="#C98560" stop-opacity="0"/>
</radialGradient>
<linearGradient id="paint13_linear_255_89" x1="1173.91" y1="1539.14" x2="1173.91" y2="2005.86" gradientUnits="userSpaceOnUse">
<stop stop-color="#2D7A93"/>
<stop offset="1" stop-color="#1C5365"/>
</linearGradient>
<linearGradient id="paint14_linear_255_89" x1="1173.91" y1="1539.14" x2="1173.91" y2="2005.86" gradientUnits="userSpaceOnUse">
<stop stop-color="#2D7A93"/>
<stop offset="1" stop-color="#1C5365"/>
</linearGradient>
<linearGradient id="paint15_linear_255_89" x1="1173.91" y1="1539.14" x2="1173.91" y2="2005.86" gradientUnits="userSpaceOnUse">
<stop stop-color="#2D7A93"/>
<stop offset="1" stop-color="#1C5365"/>
</linearGradient>
<linearGradient id="paint16_linear_255_89" x1="1174.33" y1="1468.31" x2="1171.48" y2="1595.64" gradientUnits="userSpaceOnUse">
<stop stop-color="#2D7A93"/>
<stop offset="1" stop-color="#11112F"/>
</linearGradient>
<radialGradient id="paint17_radial_255_89" cx="0" cy="0" r="1" gradientUnits="userSpaceOnUse" gradientTransform="translate(1173.79 1565.37) rotate(90) scale(55.0476 244.207)">
<stop stop-color="#935E2D"/>
<stop offset="1" stop-color="#362519"/>
</radialGradient>
<linearGradient id="paint18_linear_255_89" x1="947.5" y1="1605" x2="947.5" y2="1942" gradientUnits="userSpaceOnUse">
<stop stop-color="#2C768E"/>
<stop offset="1" stop-color="#1D5566"/>
</linearGradient>
<linearGradient id="paint19_linear_255_89" x1="999.08" y1="1130.99" x2="1085.81" y2="1629.59" gradientUnits="userSpaceOnUse">
<stop stop-color="#F9C390" stop-opacity="0"/>
<stop offset="1" stop-color="#89592C"/>
</linearGradient>
<linearGradient id="paint20_linear_255_89" x1="1162.49" y1="997.5" x2="1152.99" y2="1503.5" gradientUnits="userSpaceOnUse">
<stop stop-color="#F9C390" stop-opacity="0"/>
<stop offset="1" stop-color="#89592C"/>
</linearGradient>
<linearGradient id="paint21_linear_255_89" x1="1201.54" y1="1147" x2="1192.04" y2="1653" gradientUnits="userSpaceOnUse">
<stop stop-color="#F9C390" stop-opacity="0"/>
<stop offset="1" stop-color="#89592C"/>
</linearGradient>
<linearGradient id="paint22_linear_255_89" x1="861.5" y1="1033" x2="861.5" y2="1523" gradientUnits="userSpaceOnUse">
<stop stop-color="#83558F"/>
<stop offset="1" stop-color="#3A1B42"/>
</linearGradient>
<linearGradient id="paint23_linear_255_89" x1="861.5" y1="1033" x2="861.5" y2="1523" gradientUnits="userSpaceOnUse">
<stop stop-color="#83558F"/>
<stop offset="1" stop-color="#3A1B42"/>
</linearGradient>
<linearGradient id="paint24_linear_255_89" x1="861.5" y1="1033" x2="861.5" y2="1523" gradientUnits="userSpaceOnUse">
<stop stop-color="#83558F"/>
<stop offset="1" stop-color="#3A1B42"/>
</linearGradient>
<linearGradient id="paint25_linear_255_89" x1="862" y1="1036.3" x2="862" y2="1244.5" gradientUnits="userSpaceOnUse">
<stop stop-color="#83558F"/>
<stop offset="0.377832" stop-color="#2B0E32"/>
</linearGradient>
<radialGradient id="paint26_radial_255_89" cx="0" cy="0" r="1" gradientUnits="userSpaceOnUse" gradientTransform="translate(825.5 254.5) rotate(82.3338) scale(978.244 1899.78)">
<stop offset="0.325288" stop-color="#3E7442"/>
<stop offset="1" stop-color="#113821"/>
</radialGradient>
<radialGradient id="paint27_radial_255_89" cx="0" cy="0" r="1" gradientUnits="userSpaceOnUse" gradientTransform="translate(825.5 254.5) rotate(82.3338) scale(978.244 1899.78)">
<stop offset="0.325288" stop-color="#3E7442"/>
<stop offset="1" stop-color="#113821"/>
</radialGradient>
<radialGradient id="paint28_radial_255_89" cx="0" cy="0" r="1" gradientUnits="userSpaceOnUse" gradientTransform="translate(825.5 254.5) rotate(82.3338) scale(978.244 1899.78)">
<stop offset="0.325288" stop-color="#3E7442"/>
<stop offset="1" stop-color="#113821"/>
</radialGradient>
<radialGradient id="paint29_radial_255_89" cx="0" cy="0" r="1" gradientUnits="userSpaceOnUse" gradientTransform="translate(825.5 254.5) rotate(82.3338) scale(978.244 1899.78)">
<stop offset="0.325288" stop-color="#3E7442"/>
<stop offset="1" stop-color="#113821"/>
</radialGradient>
<linearGradient id="paint30_linear_255_89" x1="4033" y1="0" x2="4033" y2="1994" gradientUnits="userSpaceOnUse">
<stop stop-color="#8AAAB2"/>
<stop offset="1" stop-color="#47565C"/>
</linearGradient>
</defs>
</svg>
