<svg width="100" height="100" viewBox="0 0 100 100" fill="none" xmlns="http://www.w3.org/2000/svg">
<path d="M8.49917 9L91.4989 92M40.0588 40.8796C37.6489 43.3694 36.1658 46.7613 36.1658 50.5C36.1658 58.1402 42.3593 64.3333 49.999 64.3333C53.7916 64.3333 57.2278 62.8071 59.7266 60.3355M24.638 25.8174C15.8802 31.596 9.20942 40.2815 6 50.5C11.8757 69.2077 29.3532 82.7778 49.9999 82.7778C59.1709 82.7778 67.7167 80.1006 74.898 75.4848M45.3879 18.45C46.905 18.2994 48.4437 18.2222 49.9999 18.2222C70.6471 18.2222 88.1245 31.7923 94 50.5C92.7057 54.6223 90.8474 58.4947 88.5165 62.0278" stroke="#CF19E0" stroke-width="10" stroke-linecap="round" stroke-linejoin="round"/>
</svg>
