<svg width="336" height="148" viewBox="0 0 336 148" fill="none" xmlns="http://www.w3.org/2000/svg">
<path d="M10 64C4.47715 64 0 68.4772 0 74C0 79.5228 4.47715 84 10 84V64ZM333.071 81.0711C336.976 77.1658 336.976 70.8342 333.071 66.9289L269.431 3.28932C265.526 -0.615921 259.195 -0.615921 255.289 3.28932C251.384 7.19456 251.384 13.5262 255.289 17.4315L311.858 74L255.289 130.569C251.384 134.474 251.384 140.805 255.289 144.711C259.195 148.616 265.526 148.616 269.431 144.711L333.071 81.0711ZM10 84H326V64H10V84Z" fill="#360A14"/>
</svg>
