<svg width="100" height="100" viewBox="0 0 100 100" fill="none" xmlns="http://www.w3.org/2000/svg">
<path d="M81.75 38.125H75.5V25.75C75.5 12.0818 64.3063 1 50.5 1C36.6937 1 25.5 12.0818 25.5 25.75V38.125H19.25C15.7953 38.125 13 40.8924 13 44.3125V93.8125C13 97.2326 15.7953 100 19.25 100H81.75C85.2047 100 88 97.2326 88 93.8125V44.3125C88 40.8924 85.2047 38.125 81.75 38.125ZM50.5 75.25C47.0453 75.25 44.25 72.4826 44.25 69.0625C44.25 65.6424 47.0453 62.875 50.5 62.875C53.9547 62.875 56.75 65.6424 56.75 69.0625C56.75 72.4826 53.9547 75.25 50.5 75.25ZM63 38.125H38V25.75C38 18.9159 43.5969 13.375 50.5 13.375C57.4031 13.375 63 18.9159 63 25.75V38.125Z" fill="#F6E8EA"/>
</svg>
