<svg id="eeMP58HsA0F1" xmlns="http://www.w3.org/2000/svg" xmlns:xlink="http://www.w3.org/1999/xlink" viewBox="0 0 550 760" shape-rendering="geometricPrecision" text-rendering="geometricPrecision">
<style><![CDATA[
#eeMP58HsA0F2 {animation: eeMP58HsA0F2_c_o 3000ms linear infinite alternate forwards}@keyframes eeMP58HsA0F2_c_o { 0% {opacity: 0} 6.666667% {opacity: 1} 100% {opacity: 1}} #eeMP58HsA0F3 {animation: eeMP58HsA0F3_c_o 3000ms linear infinite alternate forwards}@keyframes eeMP58HsA0F3_c_o { 0% {opacity: 0} 6.666667% {opacity: 0} 13.333333% {opacity: 1} 100% {opacity: 1}} #eeMP58HsA0F4 {animation: eeMP58HsA0F4_c_o 3000ms linear infinite alternate forwards}@keyframes eeMP58HsA0F4_c_o { 0% {opacity: 0} 13.333333% {opacity: 0} 20% {opacity: 1} 100% {opacity: 1}} #eeMP58HsA0F5 {animation: eeMP58HsA0F5_c_o 3000ms linear infinite alternate forwards}@keyframes eeMP58HsA0F5_c_o { 0% {opacity: 0} 20% {opacity: 0} 26.666667% {opacity: 1} 100% {opacity: 1}} #eeMP58HsA0F6 {animation: eeMP58HsA0F6_c_o 3000ms linear infinite alternate forwards}@keyframes eeMP58HsA0F6_c_o { 0% {opacity: 0} 26.666667% {opacity: 0} 33.333333% {opacity: 1} 100% {opacity: 1}} #eeMP58HsA0F7 {animation: eeMP58HsA0F7_c_o 3000ms linear infinite alternate forwards}@keyframes eeMP58HsA0F7_c_o { 0% {opacity: 0} 33.333333% {opacity: 0} 40% {opacity: 1} 100% {opacity: 1}} #eeMP58HsA0F8 {animation: eeMP58HsA0F8_c_o 3000ms linear infinite alternate forwards}@keyframes eeMP58HsA0F8_c_o { 0% {opacity: 0} 40% {opacity: 0} 46.666667% {opacity: 1} 100% {opacity: 1}} #eeMP58HsA0F9 {animation: eeMP58HsA0F9_c_o 3000ms linear infinite alternate forwards}@keyframes eeMP58HsA0F9_c_o { 0% {opacity: 0} 46.666667% {opacity: 0} 53.333333% {opacity: 1} 100% {opacity: 1}} #eeMP58HsA0F10_tr {animation: eeMP58HsA0F10_tr__tr 3000ms linear infinite alternate forwards}@keyframes eeMP58HsA0F10_tr__tr { 0% {transform: translate(281.785896px,375.778px) rotate(0deg)} 53.333333% {transform: translate(281.785896px,375.778px) rotate(0deg);animation-timing-function: cubic-bezier(0.075,0.82,0.165,1)} 83.333333% {transform: translate(281.785896px,375.778px) rotate(360deg)} 100% {transform: translate(281.785896px,375.778px) rotate(360deg)}} #eeMP58HsA0F10_ts {animation: eeMP58HsA0F10_ts__ts 3000ms linear infinite alternate forwards}@keyframes eeMP58HsA0F10_ts__ts { 0% {transform: scale(1,1)} 83.333333% {transform: scale(1,1)} 93.333333% {transform: scale(1.2,1.2)} 100% {transform: scale(1,1)}} #eeMP58HsA0F10 {animation: eeMP58HsA0F10_c_o 3000ms linear infinite alternate forwards}@keyframes eeMP58HsA0F10_c_o { 0% {opacity: 0} 53.333333% {opacity: 0} 83.333333% {opacity: 1} 100% {opacity: 1}}
]]></style>
<path id="eeMP58HsA0F2" d="M219.999,760v-236.445h56.024v236.445h-56.024ZM155.434,573.546v-49.991h185.155v49.991h-185.155Z" opacity="0" fill="#360a14"/><path id="eeMP58HsA0F3" d="M413.011,638.062c-18.903,0-35.3-3.941-49.193-11.823-13.892-8.106-24.596-19.028-32.111-32.764-7.288-13.736-10.932-29.162-10.932-46.276s3.985-32.539,11.956-46.275c7.971-13.737,19.017-24.545,33.137-32.427c14.12-8.107,30.29-12.16,48.509-12.16c19.131,0,35.3,3.716,48.509,11.147s23.23,18.015,30.062,31.751c6.833,13.736,10.249,30.287,10.249,49.653v11.485h-135.963v-35.129h89.162l-7.516,5.742c-.228-10.133-3.644-18.015-10.248-23.644-6.605-5.63-15.031-8.445-25.28-8.445-9.793,0-18.561,3.153-26.304,9.458-7.743,6.08-11.615,15.65-11.615,28.711v13.849c0,8.332,1.48,15.65,4.441,21.956c3.189,6.08,7.516,10.808,12.981,14.186c5.694,3.378,12.412,5.067,20.156,5.067c8.882,0,16.056-1.802,21.521-5.405c5.466-3.828,9.338-8.669,11.615-14.524h55.342c-4.327,19.816-14.12,35.804-29.379,47.964-15.031,11.935-34.731,17.903-59.099,17.903Z" opacity="0" fill="#360a14"/><path id="eeMP58HsA0F4" d="M469.719,527.719c3.418.377,6.949.565,10.592.565c15.487,0,28.354-2.589,38.602-7.769c10.477-5.404,18.22-12.498,23.23-21.28c5.238-9.007,7.857-19.028,7.857-30.062c0-13.511-4.099-23.982-12.298-31.413-7.971-7.432-17.65-12.723-29.037-15.876l-24.596-7.093c-6.377-1.802-11.273-3.828-14.69-6.08-3.188-2.252-4.782-5.067-4.782-8.445c0-3.152,1.594-5.742,4.782-7.769c3.189-2.026,7.516-3.04,12.982-3.04c5.693,0,10.134,1.577,13.323,4.729c3.188,2.928,4.782,6.643,4.782,11.147h45.435c0-11.034-2.619-20.942-7.857-29.725-5.011-9.007-12.412-16.1-22.205-21.28-9.565-5.179-21.294-7.768-35.186-7.768-12.298,0-23.458,2.364-33.479,7.093-9.792,4.504-17.536,10.809-23.229,18.915-5.694,7.882-8.541,16.889-8.541,27.023c0,13.06,3.416,23.869,10.249,32.426c7.06,8.557,16.853,14.863,29.379,18.916l27.329,8.782c5.466,1.576,9.679,3.603,12.639,6.08c2.961,2.252,4.441,5.179,4.441,8.782s-1.594,6.531-4.782,8.783c-2.961,2.252-7.06,3.377-12.298,3.377-6.605,0-11.501-1.801-14.69-5.404-3.188-3.828-4.782-8.332-4.782-13.511h-50.559c0,7.912,1.251,15.231,3.753,21.955h53.636v37.942Z" opacity="0" fill="#360a14"/><path id="eeMP58HsA0F5" d="M452.638,363.11v-222.933h54.658v222.933h-54.658ZM420.526,234.079v-43.236h126.056v43.236h-126.056Z" opacity="0" fill="#360a14"/><path id="eeMP58HsA0F6" d="M330.001,-0.000549v236.444549h-56.024v-236.444549h56.024ZM394.566,186.453v49.991h-185.155v-49.991h185.155Z" opacity="0" fill="#360a14"/><path id="eeMP58HsA0F7" d="M136.989,121.937c18.903,0,35.3,3.941,49.193,11.823c13.892,8.106,24.596,19.028,32.111,32.764c7.288,13.736,10.932,29.162,10.932,46.276s-3.985,32.539-11.956,46.275c-7.971,13.737-19.017,24.545-33.137,32.427-14.12,8.107-30.29,12.16-48.509,12.16-19.131,0-35.3-3.716-48.5094-11.147-13.2091-7.431-23.2297-18.015-30.062-31.751s-10.2484-30.287-10.2484-49.653v-11.485h135.9628v35.129h-89.1617l7.5157-5.742c.228,10.133,3.644,18.015,10.248,23.644c6.605,5.63,15.031,8.445,25.28,8.445c9.793,0,18.561-3.153,26.304-9.458c7.743-6.08,11.615-15.65,11.615-28.711v-13.849c0-8.332-1.48-15.65-4.441-21.955-3.189-6.08-7.516-10.809-12.981-14.187-5.694-3.378-12.412-5.067-20.156-5.067-8.882,0-16.056,1.802-21.521,5.405-5.466,3.828-9.338,8.669-11.615,14.524h-55.3418C52.8383,167.988,62.6313,152,77.89,139.84c15.0311-11.935,34.731-17.903,59.099-17.903Z" opacity="0" fill="#360a14"/><path id="eeMP58HsA0F8" d="M80.2814,232.28c-3.4182-.377-6.949-.565-10.5924-.565-15.4865,0-28.354,2.59-38.6024,7.769-10.4762,5.404-18.2194,12.498-23.22979,21.28-5.2381,9.007-7.857146,19.028-7.857146,30.062c0,13.511,4.099396,23.982,12.298136,31.413c7.971,7.432,17.6501,12.723,29.0372,15.876l24.5962,7.093c6.3768,1.802,11.2733,3.828,14.6894,6.08c3.1884,2.252,4.7826,5.067,4.7826,8.445c0,3.152-1.5942,5.742-4.7826,7.769-3.1884,2.026-7.5155,3.04-12.9813,3.04-5.6936,0-10.1346-1.577-13.323-4.729-3.1884-2.928-4.7825-6.643-4.7825-11.147h-45.43477c0,11.034,2.61905,20.942,7.85717,29.725c5.0103,9.007,12.412,16.1,22.2049,21.28c9.5652,5.179,21.294,7.769,35.1863,7.769c12.2981,0,23.4575-2.365,33.4786-7.094c9.792-4.504,17.536-10.809,23.229-18.915c5.694-7.882,8.541-16.889,8.541-27.023c0-13.06-3.416-23.869-10.249-32.426-7.06-8.557-16.853-14.863-29.3786-18.916l-27.3291-8.782c-5.4658-1.576-9.6791-3.603-12.6397-6.08-2.9607-2.252-4.441-5.179-4.441-8.782s1.5942-6.531,4.7826-8.783c2.9606-2.251,7.06-3.377,12.2981-3.377c6.6045,0,11.501,1.801,14.6894,5.404c3.1884,3.828,4.7826,8.332,4.7826,13.511h50.5587c0-7.912-1.251-15.23-3.753-21.955h-53.6356v-37.942Z" opacity="0" fill="#360a14"/><path id="eeMP58HsA0F9" d="M97.3621,396.889v222.933h-54.6583v-222.933h54.6583ZM129.474,525.92v43.236h-126.05588v-43.236h126.05588Z" opacity="0" fill="#360a14"/><g id="eeMP58HsA0F10_tr" transform="translate(281.785896,375.778) rotate(0)"><g id="eeMP58HsA0F10_ts" transform="scale(1,1)"><path id="eeMP58HsA0F10" d="M281.778,304c-34.158,0-68.315,17.944-68.315,44.86c0,17.944,12.811,26.915,12.811,44.859c0,13.461-4.267,13.461-4.267,22.433c0,4.483,13.667,9.57,25.618,13.46v17.944h68.32v-17.944c0,0,25.777-8.36,25.618-13.46-.264-8.36-4.268-8.972-4.268-22.433c0-8.972,12.989-27.341,12.812-44.859-.009-26.916-34.162-44.86-68.32-44.86h-.009Zm-25.623,53.827c9.432,0,17.079,8.034,17.079,17.944c0,9.909-7.647,17.944-17.079,17.944s-17.078-8.035-17.078-17.944c0-9.91,7.646-17.944,17.078-17.944Zm51.241,0c9.432,0,17.079,8.034,17.079,17.944c0,9.909-7.647,17.944-17.079,17.944s-17.079-8.035-17.079-17.944c0-9.91,7.647-17.944,17.079-17.944Zm-25.618,31.404c4.267,0,12.811,17.944,12.811,22.432c0,8.972,0,8.972-4.267,8.972h-17.079c-4.267,0-4.267,0-4.267-8.972-.005-4.488,8.53-22.432,12.802-22.432Z" transform="translate(-281.785896,-375.778)" opacity="0" fill="#f6e8ea"/></g></g></svg>
