<svg width="1331" height="1859" viewBox="0 0 1331 1859" fill="none" xmlns="http://www.w3.org/2000/svg">
<path d="M532.084 1859V1280.64H667.586V1859H532.084ZM375.927 1402.92V1280.64H823.743V1402.92H375.927Z" fill="white"/>
<path d="M998.904 1560.73C953.186 1560.73 913.527 1551.09 879.927 1531.82C846.327 1511.99 820.438 1485.27 802.261 1451.67C784.635 1418.07 775.822 1380.34 775.822 1338.48C775.822 1296.62 785.461 1258.88 804.74 1225.28C824.019 1191.68 850.733 1165.24 884.884 1145.97C919.035 1126.14 958.143 1116.22 1002.21 1116.22C1048.48 1116.22 1087.59 1125.31 1119.53 1143.49C1151.48 1161.66 1175.72 1187.55 1192.24 1221.15C1208.77 1254.75 1217.03 1295.24 1217.03 1342.61V1370.7H888.189V1284.77H1103.83L1085.66 1298.82C1085.11 1274.03 1076.84 1254.75 1060.87 1240.98C1044.9 1227.21 1024.52 1220.33 999.73 1220.33C976.045 1220.33 954.838 1228.04 936.11 1243.46C917.383 1258.33 908.019 1281.74 908.019 1313.69V1347.57C908.019 1367.95 911.599 1385.85 918.76 1401.27C926.471 1416.14 936.937 1427.71 950.156 1435.97C963.927 1444.23 980.176 1448.37 998.904 1448.37C1020.39 1448.37 1037.74 1443.96 1050.96 1435.15C1064.18 1425.78 1073.54 1413.94 1079.05 1399.62H1212.9C1202.43 1448.09 1178.75 1487.2 1141.84 1516.94C1105.49 1546.14 1057.84 1560.73 998.904 1560.73Z" fill="white"/>
<path d="M1136.06 1290.83C1144.33 1291.75 1152.86 1292.21 1161.68 1292.21C1199.13 1292.21 1230.25 1285.88 1255.04 1273.21C1280.38 1259.99 1299.11 1242.64 1311.22 1221.15C1323.89 1199.12 1330.23 1174.61 1330.23 1147.62C1330.23 1114.57 1320.31 1088.96 1300.48 1070.78C1281.2 1052.6 1257.79 1039.66 1230.25 1031.95L1170.77 1014.6C1155.34 1010.19 1143.5 1005.23 1135.24 999.724C1127.53 994.216 1123.67 987.331 1123.67 979.069C1123.67 971.357 1127.53 965.023 1135.24 960.065C1142.95 955.108 1153.41 952.629 1166.63 952.629C1180.4 952.629 1191.15 956.485 1198.86 964.197C1206.57 971.357 1210.42 980.446 1210.42 991.462H1320.31C1320.31 964.472 1313.98 940.236 1301.31 918.754C1289.19 896.721 1271.29 879.37 1247.6 866.702C1224.47 854.033 1196.1 847.698 1162.5 847.698C1132.76 847.698 1105.77 853.482 1081.53 865.049C1057.85 876.065 1039.12 891.488 1025.35 911.318C1011.58 930.597 1004.69 952.629 1004.69 977.416C1004.69 1009.36 1012.96 1035.8 1029.48 1056.73C1046.56 1077.67 1070.24 1093.09 1100.54 1103L1166.63 1124.48C1179.85 1128.34 1190.04 1133.3 1197.2 1139.36C1204.37 1144.87 1207.95 1152.03 1207.95 1160.84C1207.95 1169.65 1204.09 1176.81 1196.38 1182.32C1189.22 1187.83 1179.3 1190.58 1166.63 1190.58C1150.66 1190.58 1138.82 1186.18 1131.11 1177.36C1123.39 1168 1119.54 1156.98 1119.54 1144.31H997.257C997.257 1163.67 1000.28 1181.57 1006.34 1198.02H1136.06V1290.83Z" fill="white"/>
<path d="M1094.75 888.183V342.871H1226.94V888.183H1094.75ZM1017.08 572.563V466.806H1321.96V572.563H1017.08Z" fill="white"/>
<path d="M798.143 0V578.36H662.641V0H798.143ZM954.3 456.078V578.36H506.484V456.078H954.3Z" fill="white"/>
<path d="M331.324 298.269C377.042 298.269 416.701 307.908 450.301 327.187C483.9 347.016 509.789 373.731 527.966 407.331C545.592 440.931 554.405 478.662 554.405 520.524C554.405 562.387 544.766 600.118 525.487 633.718C506.209 667.318 479.494 693.757 445.343 713.036C411.192 732.865 372.084 742.78 328.019 742.78C281.75 742.78 242.642 733.691 210.694 715.514C178.747 697.337 154.51 671.449 137.986 637.849C121.461 604.249 113.199 563.764 113.199 516.393V488.301H442.038V574.229H226.392L244.569 560.183C245.12 584.97 253.383 604.249 269.356 618.019C285.33 631.79 305.71 638.675 330.497 638.675C354.183 638.675 375.389 630.964 394.117 615.541C412.845 600.668 422.209 577.259 422.209 545.311V511.436C422.209 491.056 418.628 473.154 411.468 457.731C403.756 442.859 393.291 431.292 380.071 423.029C366.301 414.767 350.051 410.636 331.324 410.636C309.842 410.636 292.491 415.042 279.271 423.855C266.051 433.219 256.687 445.062 251.179 459.383H117.33C127.796 410.911 151.481 371.803 188.386 342.059C224.74 312.865 272.386 298.269 331.324 298.269Z" fill="white"/>
<path d="M194.17 568.175C185.902 567.253 177.363 566.792 168.551 566.792C131.095 566.792 99.9738 573.127 75.1869 585.796C49.8492 599.015 31.1213 616.366 19.0033 637.848C6.33446 659.881 0 684.392 0 711.382C0 744.432 9.9148 770.045 29.7443 788.222C49.023 806.399 72.4328 819.343 99.9738 827.054L159.462 844.405C174.885 848.812 186.728 853.769 194.99 859.277C202.702 864.786 206.557 871.671 206.557 879.933C206.557 887.645 202.702 893.979 194.99 898.936C187.279 903.894 176.813 906.372 163.593 906.372C149.823 906.372 139.082 902.517 131.37 894.805C123.659 887.645 119.803 878.556 119.803 867.54H9.91474C9.91474 894.53 16.2492 918.766 28.918 940.248C41.0361 962.281 58.9377 979.631 82.623 992.3C105.757 1004.97 134.125 1011.3 167.725 1011.3C197.469 1011.3 224.459 1005.52 248.695 993.953C272.38 982.936 291.108 967.513 304.879 947.684C318.649 928.405 325.534 906.372 325.534 881.586C325.534 849.638 317.272 823.199 300.747 802.268C283.672 781.336 259.987 765.913 229.692 755.999L163.593 734.517C150.374 730.661 140.184 725.704 133.023 719.645C125.862 714.136 122.282 706.976 122.282 698.163C122.282 689.35 126.138 682.189 133.849 676.681C141.01 671.173 150.925 668.418 163.593 668.418C179.567 668.418 191.41 672.825 199.121 681.638C206.833 691.002 210.688 702.018 210.688 714.687H332.97C332.97 695.333 329.944 677.432 323.892 660.983H194.17V568.175Z" fill="white"/>
<path d="M235.481 970.819V1516.13H103.284V970.819H235.481ZM313.146 1286.44V1392.2H8.26792V1286.44H313.146Z" fill="white"/>
<path d="M681.595 743.6C598.982 743.6 516.368 787.492 516.368 853.33C516.368 897.221 547.354 919.167 547.354 963.059C547.354 995.984 537.033 995.984 537.033 1017.93C537.033 1028.9 570.089 1041.34 598.993 1050.85V1094.75H764.231V1050.85C764.231 1050.85 826.577 1030.41 826.191 1017.93C825.552 997.482 815.87 995.984 815.87 963.059C815.87 941.113 847.285 896.18 846.855 853.33C846.833 787.492 764.231 743.6 681.617 743.6H681.595ZM619.624 875.264C642.436 875.264 660.931 894.916 660.931 919.156C660.931 943.396 642.436 963.048 619.624 963.048C596.812 963.048 578.317 943.396 578.317 919.156C578.317 894.916 596.812 875.264 619.624 875.264ZM743.555 875.264C766.368 875.264 784.862 894.916 784.862 919.156C784.862 943.396 766.368 963.048 743.555 963.048C720.743 963.048 702.249 943.396 702.249 919.156C702.249 894.916 720.743 875.264 743.555 875.264ZM681.595 952.081C691.916 952.081 712.581 995.973 712.581 1006.95C712.581 1028.9 712.581 1028.9 702.26 1028.9H660.953C650.632 1028.9 650.632 1028.9 650.632 1006.95C650.621 995.973 671.263 952.081 681.595 952.081Z" fill="white"/>
</svg>
