<svg width="375" height="525" viewBox="0 0 375 525" fill="none" xmlns="http://www.w3.org/2000/svg">
<path d="M149.998 524.064V361.022H188.197V524.064H149.998ZM105.977 395.494V361.022H232.218V395.494H105.977Z" fill="#360A14"/>
<path d="M281.597 439.981C268.709 439.981 257.528 437.264 248.056 431.829C238.584 426.239 231.286 418.708 226.162 409.236C221.193 399.764 218.709 389.127 218.709 377.326C218.709 365.525 221.426 354.888 226.861 345.416C232.296 335.944 239.827 328.491 249.454 323.056C259.081 317.466 270.106 314.671 282.528 314.671C295.572 314.671 306.596 317.233 315.603 322.358C324.609 327.482 331.441 334.78 336.099 344.252C340.758 353.724 343.087 365.137 343.087 378.491V386.41H250.386V362.187H311.177L306.053 366.146C305.898 359.159 303.569 353.724 299.065 349.842C294.562 345.96 288.817 344.019 281.83 344.019C275.153 344.019 269.174 346.193 263.895 350.541C258.615 354.733 255.976 361.333 255.976 370.339V379.888C255.976 385.634 256.985 390.68 259.004 395.028C261.178 399.22 264.128 402.481 267.854 404.811C271.736 407.14 276.317 408.304 281.597 408.304C287.653 408.304 292.544 407.062 296.27 404.578C299.997 401.938 302.637 398.599 304.19 394.562H341.922C338.972 408.227 332.295 419.251 321.891 427.636C311.643 435.866 298.211 439.981 281.597 439.981Z" fill="#360A14"/>
<path d="M320.261 363.893C322.592 364.153 324.999 364.283 327.483 364.283C338.042 364.283 346.815 362.497 353.803 358.926C360.946 355.199 366.225 350.308 369.641 344.252C373.213 338.041 374.998 331.131 374.998 323.522C374.998 314.206 372.203 306.985 366.613 301.861C361.179 296.737 354.579 293.088 346.815 290.914L330.045 286.023C325.697 284.78 322.359 283.383 320.03 281.83C317.856 280.277 316.769 278.336 316.769 276.007C316.769 273.833 317.856 272.048 320.03 270.65C322.204 269.253 325.154 268.554 328.881 268.554C332.763 268.554 335.79 269.641 337.964 271.815C340.138 273.833 341.225 276.395 341.225 279.501H372.203C372.203 271.892 370.418 265.06 366.846 259.004C363.43 252.793 358.383 247.902 351.707 244.33C345.185 240.759 337.188 238.973 327.716 238.973C319.331 238.973 311.722 240.604 304.89 243.864C298.213 246.97 292.934 251.318 289.052 256.908C285.17 262.343 283.229 268.554 283.229 275.541C283.229 284.547 285.558 292.001 290.216 297.901C295.03 303.802 301.707 308.15 310.247 310.945L328.881 317.001C332.607 318.088 335.48 319.485 337.499 321.193C339.517 322.746 340.526 324.765 340.526 327.249C340.526 329.734 339.439 331.752 337.266 333.305C335.247 334.858 332.452 335.634 328.881 335.634C324.377 335.634 321.039 334.392 318.865 331.907C316.691 329.268 315.604 326.162 315.604 322.591H281.132C281.132 328.047 281.985 333.093 283.692 337.73H320.261V363.893Z" fill="#360A14"/>
<path d="M308.615 250.386V96.6602H345.882V250.386H308.615ZM286.721 161.411V131.598H372.668V161.411H286.721Z" fill="#360A14"/>
<path d="M225 -3.05176e-05L225 163.043H186.801L186.801 -3.05176e-05H225ZM269.021 128.571V163.043H142.78L142.78 128.571H269.021Z" fill="#360A14"/>
<path d="M93.4014 84.0833C106.29 84.0833 117.47 86.8007 126.942 92.2354C136.414 97.8255 143.712 105.357 148.836 114.828C153.805 124.301 156.289 134.937 156.289 146.738C156.289 158.539 153.572 169.176 148.137 178.648C142.702 188.12 135.171 195.573 125.544 201.008C115.917 206.598 104.892 209.393 92.4697 209.393C79.4263 209.393 68.4016 206.831 59.3954 201.707C50.3892 196.583 43.557 189.285 38.8986 179.813C34.2402 170.341 31.9111 158.928 31.9111 145.574V137.654L124.612 137.654V161.878H63.8208L68.945 157.918C69.1003 164.906 71.4295 170.341 75.9326 174.223C80.4356 178.105 86.1809 180.046 93.1685 180.046C99.8455 180.046 105.824 177.872 111.103 173.524C116.383 169.331 119.022 162.732 119.022 153.726V144.176C119.022 138.431 118.013 133.384 115.994 129.036C113.821 124.844 110.87 121.583 107.144 119.254C103.262 116.925 98.6809 115.76 93.4014 115.76C87.3455 115.76 82.4543 117.002 78.7276 119.487C75.0009 122.127 72.3611 125.465 70.8084 129.502L33.0757 129.502C36.026 115.838 42.7029 104.813 53.1066 96.428C63.355 88.1982 76.7866 84.0833 93.4014 84.0833Z" fill="#360A14"/>
<path d="M54.737 160.171C52.4065 159.911 49.9991 159.781 47.515 159.781C36.956 159.781 28.1828 161.567 21.1953 165.139C14.0525 168.865 8.77298 173.756 5.35684 179.812C1.78543 186.023 -0.000274658 192.933 -0.000274658 200.542C-0.000274658 209.859 2.79477 217.079 8.3848 222.203C13.8195 227.328 20.4189 230.977 28.1828 233.151L44.9529 238.042C49.3007 239.284 52.6392 240.682 54.9684 242.234C57.1423 243.787 58.2292 245.728 58.2292 248.057C58.2292 250.231 57.1423 252.017 54.9684 253.414C52.7945 254.812 49.8442 255.511 46.1175 255.511C42.2355 255.511 39.2076 254.424 37.0337 252.25C34.8598 250.231 33.7728 247.669 33.7728 244.564H2.79474C2.79474 252.172 4.58044 259.004 8.15186 265.06C11.568 271.271 16.6146 276.163 23.2915 279.734C29.8132 283.306 37.8101 285.091 47.2821 285.091C55.6671 285.091 63.2758 283.461 70.108 280.2C76.785 277.094 82.0645 272.747 85.9464 267.157C89.8284 261.722 91.7694 255.511 91.7694 248.523C91.7694 239.517 89.4402 232.064 84.7818 226.163C79.9682 220.262 73.2912 215.915 64.7509 213.12L46.1175 207.064C42.3908 205.977 39.5181 204.579 37.4995 202.871C35.4809 201.318 34.4716 199.3 34.4716 196.815C34.4716 194.331 35.5585 192.312 37.7324 190.759C39.7511 189.207 42.5461 188.43 46.1175 188.43C50.6206 188.43 53.9591 189.673 56.1329 192.157C58.3069 194.797 59.3938 197.902 59.3938 201.474H93.8656C93.8656 196.018 93.0126 190.971 91.3064 186.334H54.737V160.171Z" fill="#360A14"/>
<path d="M66.3829 273.678L66.3829 427.404L29.1161 427.404L29.1161 273.678H66.3829ZM88.2772 362.653V392.467L2.33051 392.467V362.653H88.2772Z" fill="#360A14"/>
<path d="M192.121 209.627C168.832 209.627 145.543 222 145.543 240.56C145.543 252.934 154.278 259.12 154.278 271.494C154.278 280.775 151.368 280.775 151.368 286.962C151.368 290.054 160.687 293.561 168.835 296.244V308.617H215.417V296.244C215.417 296.244 232.992 290.479 232.884 286.962C232.703 281.198 229.974 280.775 229.974 271.494C229.974 265.307 238.83 252.64 238.709 240.56C238.703 222 215.417 209.627 192.127 209.627H192.121ZM174.651 246.744C181.082 246.744 186.296 252.284 186.296 259.117C186.296 265.95 181.082 271.49 174.651 271.49C168.22 271.49 163.007 265.95 163.007 259.117C163.007 252.284 168.22 246.744 174.651 246.744ZM209.588 246.744C216.019 246.744 221.233 252.284 221.233 259.117C221.233 265.95 216.019 271.49 209.588 271.49C203.157 271.49 197.944 265.95 197.944 259.117C197.944 252.284 203.157 246.744 209.588 246.744ZM192.121 268.399C195.031 268.399 200.856 280.772 200.856 283.867C200.856 290.054 200.856 290.054 197.947 290.054H186.302C183.393 290.054 183.392 290.054 183.392 283.867C183.389 280.772 189.209 268.399 192.121 268.399Z" fill="#CF19E0"/>
</svg>
