<svg width="668" height="668" viewBox="0 0 668 668" fill="none" xmlns="http://www.w3.org/2000/svg">
<mask id="path-1-inside-1_787_41" fill="white">
<path fill-rule="evenodd" clip-rule="evenodd" d="M628.939 39.0588C680.129 90.2488 680.129 173.244 628.939 224.435L599.366 254.008C598.149 253.605 596.916 253.187 595.666 252.753C564.426 241.916 523.476 221.467 485.009 183C446.543 144.533 426.093 103.583 415.256 72.3444C414.819 71.0888 414.403 69.8494 413.996 68.6268L443.563 39.0588C494.753 -12.1316 577.749 -12.1316 628.939 39.0588ZM560.533 292.843L314.003 539.373C294.766 558.61 285.143 568.23 274.539 576.503C262.027 586.263 248.489 594.63 234.165 601.456C222.036 607.236 209.145 611.533 183.392 620.117L183.305 620.146L47.194 665.52C34.492 669.753 20.488 666.446 11.0203 656.98C1.55266 647.51 -1.75301 633.506 2.48099 620.806L47.8513 484.693L47.8645 484.653C56.4597 458.87 60.7599 445.97 66.544 433.833C73.3707 419.51 81.737 405.973 91.496 393.46C99.7617 382.865 109.374 373.252 128.581 354.042L128.627 353.996L375.159 107.463C389.123 141.019 412.066 180.766 449.656 218.356C487.239 255.94 526.979 278.88 560.533 292.843Z"/>
</mask>
<path fill-rule="evenodd" clip-rule="evenodd" d="M628.939 39.0588C680.129 90.2488 680.129 173.244 628.939 224.435L599.366 254.008C598.149 253.605 596.916 253.187 595.666 252.753C564.426 241.916 523.476 221.467 485.009 183C446.543 144.533 426.093 103.583 415.256 72.3444C414.819 71.0888 414.403 69.8494 413.996 68.6268L443.563 39.0588C494.753 -12.1316 577.749 -12.1316 628.939 39.0588ZM560.533 292.843L314.003 539.373C294.766 558.61 285.143 568.23 274.539 576.503C262.027 586.263 248.489 594.63 234.165 601.456C222.036 607.236 209.145 611.533 183.392 620.117L183.305 620.146L47.194 665.52C34.492 669.753 20.488 666.446 11.0203 656.98C1.55266 647.51 -1.75301 633.506 2.48099 620.806L47.8513 484.693L47.8645 484.653C56.4597 458.87 60.7599 445.97 66.544 433.833C73.3707 419.51 81.737 405.973 91.496 393.46C99.7617 382.865 109.374 373.252 128.581 354.042L128.627 353.996L375.159 107.463C389.123 141.019 412.066 180.766 449.656 218.356C487.239 255.94 526.979 278.88 560.533 292.843Z" fill="#CF19E0"/>
<path d="M628.939 224.435L636.01 231.506L636.01 231.506L628.939 224.435ZM628.939 39.0588L621.868 46.1298L621.868 46.1298L628.939 39.0588ZM599.366 254.008L596.222 263.501L602.076 265.44L606.437 261.079L599.366 254.008ZM595.666 252.753L598.944 243.306L598.944 243.306L595.666 252.753ZM485.009 183L477.938 190.071L485.009 183ZM415.256 72.3444L424.704 69.067L424.701 69.06L415.256 72.3444ZM413.996 68.6268L406.925 61.5559L402.558 65.9229L404.507 71.7829L413.996 68.6268ZM443.563 39.0588L436.492 31.9877L436.492 31.9879L443.563 39.0588ZM314.003 539.373L321.074 546.444L314.003 539.373ZM560.533 292.843L567.604 299.914L578.167 289.35L564.375 283.61L560.533 292.843ZM274.539 576.503L280.69 584.388L280.691 584.387L274.539 576.503ZM234.165 601.456L238.467 610.484L238.468 610.483L234.165 601.456ZM183.392 620.117L180.23 610.63L180.228 610.631L183.392 620.117ZM183.305 620.146L186.468 629.633L186.469 629.633L183.305 620.146ZM47.194 665.52L50.3558 675.007L50.3564 675.006L47.194 665.52ZM11.0203 656.98L3.9484 664.05L3.94963 664.051L11.0203 656.98ZM2.48099 620.806L11.9677 623.969L11.9678 623.968L2.48099 620.806ZM47.8513 484.693L38.3648 481.53L38.3645 481.531L47.8513 484.693ZM47.8645 484.653L57.3511 487.816L57.3513 487.816L47.8645 484.653ZM66.544 433.833L57.5169 429.53L57.5167 429.531L66.544 433.833ZM91.496 393.46L83.6116 387.308L83.6105 387.31L91.496 393.46ZM128.581 354.042L121.509 346.971L121.509 346.972L128.581 354.042ZM128.627 353.996L135.698 361.067L135.698 361.067L128.627 353.996ZM375.159 107.463L384.392 103.621L378.652 89.8278L368.088 100.392L375.159 107.463ZM449.656 218.356L456.727 211.285L456.727 211.284L449.656 218.356ZM636.01 231.506C691.106 176.41 691.106 87.083 636.01 31.9877L621.868 46.1298C669.153 93.4146 669.153 170.079 621.868 217.364L636.01 231.506ZM606.437 261.079L636.01 231.506L621.868 217.364L592.295 246.937L606.437 261.079ZM592.388 262.201C593.683 262.65 594.961 263.083 596.222 263.501L602.51 244.515C601.338 244.127 600.149 243.724 598.944 243.306L592.388 262.201ZM477.938 190.071C517.685 229.818 560.032 250.976 592.389 262.201L598.944 243.306C568.82 232.855 529.268 213.116 492.081 175.929L477.938 190.071ZM405.808 75.6219C417.032 107.977 438.192 150.325 477.938 190.071L492.081 175.929C454.893 138.741 435.153 99.1886 424.704 69.067L405.808 75.6219ZM404.507 71.7829C404.92 73.0238 405.353 74.3116 405.811 75.6289L424.701 69.06C424.286 67.8659 423.886 66.675 423.485 65.4706L404.507 71.7829ZM436.492 31.9879L406.925 61.5559L421.067 75.6977L450.634 46.1297L436.492 31.9879ZM636.01 31.9877C580.915 -23.1079 491.587 -23.1079 436.492 31.9877L450.634 46.1298C497.919 -1.15525 574.584 -1.15525 621.868 46.1298L636.01 31.9877ZM321.074 546.444L567.604 299.914L553.462 285.772L306.932 532.302L321.074 546.444ZM280.691 584.387C291.89 575.649 302.003 565.515 321.074 546.444L306.932 532.302C287.529 551.704 278.396 560.81 268.388 568.619L280.691 584.387ZM238.468 610.483C253.447 603.344 267.604 594.595 280.69 584.388L268.389 568.618C256.449 577.931 243.531 585.915 229.863 592.429L238.468 610.483ZM186.554 629.604C212.084 621.095 225.655 616.589 238.467 610.484L229.863 592.429C218.417 597.884 206.206 601.972 180.23 610.63L186.554 629.604ZM186.469 629.633L186.556 629.604L180.228 610.631L180.142 610.66L186.469 629.633ZM50.3564 675.006L186.468 629.633L180.143 610.659L44.0315 656.033L50.3564 675.006ZM3.94963 664.051C16.0952 676.195 34.0603 680.438 50.3558 675.007L44.0322 656.033C34.9237 659.068 24.8808 656.697 18.091 649.908L3.94963 664.051ZM-7.00569 617.643C-12.438 633.938 -8.19616 651.902 3.9484 664.05L18.0923 649.909C11.3015 643.117 8.93195 633.075 11.9677 623.969L-7.00569 617.643ZM38.3645 481.531L-7.00586 617.644L11.9678 623.968L57.3382 487.855L38.3645 481.531ZM38.378 481.49L38.3648 481.53L57.3379 487.856L57.3511 487.816L38.378 481.49ZM57.5167 429.531C51.4073 442.351 46.8985 455.931 38.3778 481.491L57.3513 487.816C66.021 461.809 70.1126 449.589 75.5713 438.135L57.5167 429.531ZM83.6105 387.31C73.4052 400.395 64.656 414.551 57.5169 429.53L75.5711 438.135C82.0853 424.468 90.0688 411.55 99.3814 399.609L83.6105 387.31ZM121.509 346.972C102.468 366.015 92.342 376.118 83.6116 387.308L99.3804 399.611C107.181 389.611 116.279 380.489 135.652 361.113L121.509 346.972ZM121.556 346.925L121.509 346.971L135.652 361.113L135.698 361.067L121.556 346.925ZM368.088 100.392L121.556 346.925L135.698 361.067L382.23 114.534L368.088 100.392ZM456.727 211.284C420.207 174.764 397.938 136.175 384.392 103.621L365.927 111.305C380.307 145.863 403.925 186.767 442.585 225.427L456.727 211.284ZM564.375 283.61C531.824 270.064 493.241 247.799 456.727 211.285L442.585 225.427C481.238 264.08 522.135 287.695 556.691 302.075L564.375 283.61Z" fill="#E41BF6" mask="url(#path-1-inside-1_787_41)"/>
</svg>
