<svg width="550" height="760" viewBox="0 0 550 760" fill="none" xmlns="http://www.w3.org/2000/svg">
<path d="M219.999 760V523.555H276.023V760H219.999ZM155.434 573.546V523.555H340.589V573.546H155.434Z" fill="#360A14"/>
<path d="M413.011 638.062C394.108 638.062 377.711 634.121 363.818 626.239C349.926 618.133 339.222 607.211 331.707 593.475C324.419 579.739 320.775 564.313 320.775 547.199C320.775 530.085 324.76 514.66 332.731 500.924C340.702 487.187 351.748 476.379 365.868 468.497C379.988 460.39 396.158 456.337 414.377 456.337C433.508 456.337 449.677 460.053 462.886 467.484C476.095 474.915 486.116 485.499 492.948 499.235C499.781 512.971 503.197 529.522 503.197 548.888V560.373H367.234V525.244H456.396L448.88 530.986C448.652 520.853 445.236 512.971 438.632 507.342C432.027 501.712 423.601 498.897 413.352 498.897C403.559 498.897 394.791 502.05 387.048 508.355C379.305 514.435 375.433 524.005 375.433 537.066V550.915C375.433 559.247 376.913 566.565 379.874 572.871C383.063 578.951 387.39 583.679 392.855 587.057C398.549 590.435 405.267 592.124 413.011 592.124C421.893 592.124 429.067 590.322 434.532 586.719C439.998 582.891 443.87 578.05 446.147 572.195H501.489C497.162 592.011 487.369 607.999 472.11 620.159C457.079 632.094 437.379 638.062 413.011 638.062Z" fill="#360A14"/>
<path d="M469.719 527.719C473.137 528.096 476.668 528.284 480.311 528.284C495.798 528.284 508.665 525.695 518.913 520.515C529.39 515.111 537.133 508.017 542.143 499.235C547.381 490.228 550 480.207 550 469.173C550 455.662 545.901 445.191 537.702 437.76C529.731 430.328 520.052 425.037 508.665 421.884L484.069 414.791C477.692 412.989 472.796 410.963 469.379 408.711C466.191 406.459 464.597 403.644 464.597 400.266C464.597 397.114 466.191 394.524 469.379 392.497C472.568 390.471 476.895 389.457 482.361 389.457C488.054 389.457 492.495 391.034 495.684 394.186C498.872 397.114 500.466 400.829 500.466 405.333H545.901C545.901 394.299 543.282 384.391 538.044 375.608C533.033 366.601 525.632 359.508 515.839 354.328C506.274 349.149 494.545 346.56 480.653 346.56C468.355 346.56 457.195 348.924 447.174 353.653C437.382 358.157 429.638 364.462 423.945 372.568C418.251 380.45 415.404 389.457 415.404 399.591C415.404 412.651 418.82 423.46 425.653 432.017C432.713 440.574 442.506 446.88 455.032 450.933L482.361 459.715C487.827 461.291 492.04 463.318 495 465.795C497.961 468.047 499.441 470.974 499.441 474.577C499.441 478.18 497.847 481.108 494.659 483.36C491.698 485.612 487.599 486.737 482.361 486.737C475.756 486.737 470.86 484.936 467.671 481.333C464.483 477.505 462.889 473.001 462.889 467.822H412.33C412.33 475.734 413.581 483.053 416.083 489.777H469.719V527.719Z" fill="#360A14"/>
<path d="M452.638 363.11V140.177H507.296V363.11H452.638ZM420.526 234.079V190.843H546.582V234.079H420.526Z" fill="#360A14"/>
<path d="M330.001 -0.000549316V236.444H273.977V-0.000549316H330.001ZM394.566 186.453V236.444H209.411V186.453H394.566Z" fill="#360A14"/>
<path d="M136.989 121.937C155.892 121.937 172.289 125.878 186.182 133.76C200.074 141.866 210.778 152.788 218.293 166.524C225.581 180.26 229.225 195.686 229.225 212.8C229.225 229.914 225.24 245.339 217.269 259.075C209.298 272.812 198.252 283.62 184.132 291.502C170.012 299.609 153.842 303.662 135.623 303.662C116.492 303.662 100.323 299.946 87.1136 292.515C73.9045 285.084 63.8839 274.5 57.0516 260.764C50.2193 247.028 46.8032 230.477 46.8032 211.111V199.626L182.766 199.626V234.755L93.6043 234.755L101.12 229.013C101.348 239.146 104.764 247.028 111.368 252.657C117.973 258.287 126.399 261.102 136.648 261.102C146.441 261.102 155.209 257.949 162.952 251.644C170.695 245.564 174.567 235.994 174.567 222.933V209.084C174.567 200.752 173.087 193.434 170.126 187.129C166.937 181.049 162.61 176.32 157.145 172.942C151.451 169.564 144.733 167.875 136.989 167.875C128.107 167.875 120.933 169.677 115.468 173.28C110.002 177.108 106.13 181.949 103.853 187.804H48.5112C52.8383 167.988 62.6313 152 77.89 139.84C92.9211 127.905 112.621 121.937 136.989 121.937Z" fill="#360A14"/>
<path d="M80.2814 232.28C76.8632 231.903 73.3324 231.715 69.689 231.715C54.2025 231.715 41.335 234.305 31.0866 239.484C20.6104 244.888 12.8672 251.982 7.85681 260.764C2.61871 269.771 -0.000335693 279.792 -0.000335693 290.826C-0.000335693 304.337 4.09906 314.808 12.2978 322.239C20.2688 329.671 29.9479 334.962 41.335 338.115L65.9312 345.208C72.308 347.01 77.2045 349.036 80.6206 351.288C83.809 353.54 85.4032 356.355 85.4032 359.733C85.4032 362.885 83.809 365.475 80.6206 367.502C77.4322 369.528 73.1051 370.542 67.6393 370.542C61.9457 370.542 57.5047 368.965 54.3163 365.813C51.1279 362.885 49.5338 359.17 49.5338 354.666H4.09903C4.09903 365.7 6.71808 375.608 11.9562 384.391C16.9665 393.398 24.3682 400.491 34.1611 405.671C43.7263 410.85 55.4551 413.44 69.3474 413.44C81.6455 413.44 92.8049 411.075 102.826 406.346C112.618 401.842 120.362 395.537 126.055 387.431C131.749 379.549 134.596 370.542 134.596 360.408C134.596 347.348 131.18 336.539 124.347 327.982C117.287 319.425 107.494 313.119 94.9684 309.066L67.6393 300.284C62.1735 298.708 57.9602 296.681 54.9996 294.204C52.0389 291.952 50.5586 289.025 50.5586 285.422C50.5586 281.819 52.1528 278.891 55.3412 276.639C58.3018 274.388 62.4012 273.262 67.6393 273.262C74.2438 273.262 79.1403 275.063 82.3287 278.666C85.5171 282.494 87.1113 286.998 87.1113 292.177H137.67C137.67 284.265 136.419 276.947 133.917 270.222H80.2814V232.28Z" fill="#360A14"/>
<path d="M97.3621 396.889V619.822H42.7038V396.889H97.3621ZM129.474 525.92V569.156H3.41812V525.92H129.474Z" fill="#360A14"/>
<path d="M281.778 304C247.62 304 213.463 321.944 213.463 348.86C213.463 366.804 226.274 375.775 226.274 393.719C226.274 407.18 222.007 407.18 222.007 416.152C222.007 420.635 235.674 425.722 247.625 429.612V447.556H315.945V429.612C315.945 429.612 341.722 421.252 341.563 416.152C341.299 407.792 337.295 407.18 337.295 393.719C337.295 384.747 350.284 366.378 350.107 348.86C350.098 321.944 315.945 304 281.787 304H281.778ZM256.155 357.827C265.587 357.827 273.234 365.861 273.234 375.771C273.234 385.68 265.587 393.715 256.155 393.715C246.723 393.715 239.077 385.68 239.077 375.771C239.077 365.861 246.723 357.827 256.155 357.827ZM307.396 357.827C316.828 357.827 324.475 365.861 324.475 375.771C324.475 385.68 316.828 393.715 307.396 393.715C297.964 393.715 290.317 385.68 290.317 375.771C290.317 365.861 297.964 357.827 307.396 357.827ZM281.778 389.231C286.045 389.231 294.589 407.175 294.589 411.663C294.589 420.635 294.589 420.635 290.322 420.635H273.243C268.976 420.635 268.976 420.635 268.976 411.663C268.971 407.175 277.506 389.231 281.778 389.231Z" fill="#F6E8EA"/>
</svg>
