<svg width="500" height="500" viewBox="0 0 500 500" fill="none" xmlns="http://www.w3.org/2000/svg">
<circle cx="250" cy="250" r="247.5" fill="url(#paint0_linear_782_115)" stroke="#1A41A4" stroke-width="5"/>
<path d="M314.995 375V345.582C315.09 345.552 315.187 345.52 315.288 345.488C316.588 345.069 318.442 344.461 320.666 343.704C325.108 342.192 331.041 340.078 336.976 337.68C342.889 335.29 348.899 332.581 353.446 329.867C355.71 328.516 357.724 327.099 359.193 325.645C360.575 324.278 361.936 322.428 361.864 320.228L361.864 320.227C361.641 313.52 360.018 309.375 358.393 305.228C358.133 304.564 357.874 303.901 357.619 303.227C355.823 298.463 354.058 292.634 354.058 281.245C354.058 277.853 355.374 273.312 357.593 267.649C359.036 263.967 360.779 260.001 362.649 255.746C363.638 253.495 364.662 251.163 365.697 248.75C371.596 234.988 377.662 218.936 377.497 203.108C377.482 178.435 361.021 158.228 337.188 144.324C313.316 130.398 281.624 122.5 250.003 122.5H249.986C218.365 122.5 186.67 130.398 162.798 144.324C138.961 158.231 122.5 178.442 122.5 203.122C122.5 219.338 128.586 231.509 134.409 243.152L134.483 243.302C140.358 255.05 145.939 266.281 145.939 281.245C145.939 292.602 144.066 298.148 142.214 302.781C142.02 303.265 141.825 303.743 141.63 304.222C139.872 308.525 138.132 312.786 138.132 320.31C138.132 321.975 138.799 323.472 139.724 324.748C140.647 326.021 141.915 327.205 143.371 328.307C146.28 330.51 150.288 332.652 154.843 334.698C163.489 338.584 174.564 342.327 185.001 345.591V375V377.5H187.501H312.495H314.995V375ZM229.064 312.494V312.491C229.063 311.855 229.234 310.77 229.657 309.235C230.069 307.742 230.676 305.967 231.447 304.007C232.988 300.09 235.135 295.551 237.526 291.243C239.925 286.923 242.521 282.924 244.942 280.041C246.156 278.596 247.264 277.505 248.223 276.796C249.23 276.05 249.798 275.928 249.986 275.928C250.172 275.928 250.74 276.05 251.747 276.796C252.705 277.505 253.814 278.596 255.028 280.041C257.449 282.924 260.047 286.924 262.448 291.244C264.841 295.552 266.991 300.091 268.535 304.009C269.307 305.968 269.916 307.743 270.328 309.237C270.752 310.772 270.925 311.857 270.925 312.494C270.925 316.431 270.924 319.277 270.807 321.388C270.685 323.576 270.449 324.575 270.213 325.048C270.129 325.215 270.075 325.254 270.059 325.265L270.057 325.266C270.027 325.288 269.911 325.362 269.588 325.434C268.823 325.604 267.688 325.618 265.617 325.618H234.371C232.3 325.618 231.165 325.604 230.4 325.434C230.077 325.362 229.962 325.288 229.931 325.266L229.93 325.265C229.914 325.254 229.859 325.215 229.776 325.048C229.54 324.575 229.303 323.576 229.182 321.388C229.064 319.277 229.064 316.431 229.064 312.494ZM203.108 221.239C218.983 221.239 231.854 234.11 231.854 249.987C231.854 265.865 218.983 278.736 203.108 278.736C187.232 278.736 174.361 265.865 174.361 249.987C174.361 234.11 187.232 221.239 203.108 221.239ZM296.856 221.239C312.731 221.239 325.602 234.11 325.602 249.987C325.602 265.865 312.731 278.736 296.856 278.736C280.98 278.736 268.109 265.865 268.109 249.987C268.109 234.11 280.98 221.239 296.856 221.239Z" fill="white" stroke="#2249AC" stroke-width="5"/>
<defs>
<linearGradient id="paint0_linear_782_115" x1="250" y1="0" x2="250" y2="500" gradientUnits="userSpaceOnUse">
<stop stop-color="#6C92F6"/>
<stop offset="1" stop-color="#183EA1"/>
</linearGradient>
</defs>
</svg>
