<svg width="100" height="100" viewBox="0 0 100 100" fill="none" xmlns="http://www.w3.org/2000/svg">
<path fill-rule="evenodd" clip-rule="evenodd" d="M49.9975 30.7501C39.7297 30.7501 31.4057 39.1445 31.4057 49.5001C31.4057 59.8557 39.7297 68.2501 49.9975 68.2501C60.2657 68.2501 68.5894 59.8556 68.5894 49.5001C68.5894 39.1445 60.2657 30.7501 49.9975 30.7501ZM40.7017 49.5001C40.7017 44.3222 44.8637 40.1251 49.9975 40.1251C55.1317 40.1251 59.2935 44.3222 59.2935 49.5001C59.2935 54.678 55.1317 58.8751 49.9975 58.8751C44.8637 58.8751 40.7017 54.6779 40.7017 49.5001Z" fill="#CF19E0"/>
<path fill-rule="evenodd" clip-rule="evenodd" d="M50 12C27.0997 12 7.72737 27.1801 1.21358 48.0954C0.928807 49.0098 0.928806 49.9902 1.21358 50.9046C7.72727 71.8198 27.0997 87 50 87C72.9001 87 92.2725 71.8198 98.7864 50.9046C99.0712 49.9902 99.0712 49.0098 98.7864 48.0954C92.2725 27.1803 72.9001 12 50 12ZM50 77.625C31.7922 77.625 16.2907 65.8901 10.5471 49.5C16.2907 33.1098 31.7922 21.375 50 21.375C68.2076 21.375 83.7091 33.1099 89.4529 49.5C83.7091 65.8901 68.2076 77.625 50 77.625Z" fill="#CF19E0"/>
</svg>
