<svg width="59" height="58" viewBox="0 0 59 58" fill="none" xmlns="http://www.w3.org/2000/svg">
<path d="M29.4967 0C14.7483 0 0 7.24976 0 18.1244C0 25.3742 5.53161 28.999 5.53161 36.2488C5.53161 41.6871 3.68905 41.6871 3.68905 45.312C3.68905 47.1234 9.59035 49.1785 14.7503 50.7502V58H44.2489V50.7502C44.2489 50.7502 55.379 47.3728 55.3102 45.312C55.1961 41.9345 53.4676 41.6871 53.4676 36.2488C53.4676 32.6239 59.0759 25.2021 58.9992 18.1244C58.9953 7.24976 44.2489 0 29.5006 0H29.4967ZM18.4334 21.7473C22.506 21.7473 25.8076 24.9933 25.8076 28.9971C25.8076 33.0009 22.506 36.2469 18.4334 36.2469C14.3609 36.2469 11.0593 33.0009 11.0593 28.9971C11.0593 24.9933 14.3609 21.7473 18.4334 21.7473ZM40.5579 21.7473C44.6304 21.7473 47.9321 24.9933 47.9321 28.9971C47.9321 33.0009 44.6304 36.2469 40.5579 36.2469C36.4854 36.2469 33.1837 33.0009 33.1837 28.9971C33.1837 24.9933 36.4854 21.7473 40.5579 21.7473ZM29.4967 34.4354C31.3392 34.4354 35.0283 41.6851 35.0283 43.4986C35.0283 47.1234 35.0283 47.1234 33.1857 47.1234H25.8115C23.969 47.1234 23.969 47.1234 23.969 43.4986C23.967 41.6851 27.6521 34.4354 29.4967 34.4354Z" fill="#F6E8EA"/>
</svg>
