<svg width="500" height="500" viewBox="0 0 500 500" fill="none" xmlns="http://www.w3.org/2000/svg">
<circle cx="250" cy="250" r="242.5" fill="black" stroke="#04FF1D" stroke-width="15"/>
<path d="M146.743 353.257L135.301 350.616C134.391 354.561 135.577 358.697 138.44 361.56C141.303 364.423 145.439 365.609 149.384 364.699L146.743 353.257ZM218.922 297.683C223.508 293.097 223.508 285.662 218.922 281.076C214.336 276.49 206.901 276.49 202.315 281.076L218.922 297.683ZM228.946 276.926C228.946 280.168 226.317 282.798 223.074 282.798V306.284C239.288 306.284 252.432 293.14 252.432 276.926H228.946ZM223.074 282.798C219.831 282.798 217.203 280.168 217.203 276.926H193.716C193.716 293.14 206.86 306.284 223.074 306.284V282.798ZM217.203 276.926C217.203 273.682 219.831 271.054 223.074 271.054V247.568C206.86 247.568 193.716 260.712 193.716 276.926H217.203ZM223.074 271.054C226.317 271.054 228.946 273.682 228.946 276.926H252.432C252.432 260.712 239.288 247.568 223.074 247.568V271.054ZM277.815 146.861L255.872 168.805L272.479 185.412L294.422 163.469L277.815 146.861ZM260.95 165.817L200.056 183.215L206.508 205.798L267.401 188.4L260.95 165.817ZM165.547 219.549L135.301 350.616L158.186 355.897L188.432 224.83L165.547 219.549ZM149.384 364.699L280.452 334.452L275.171 311.567L144.103 341.814L149.384 364.699ZM316.785 299.944L334.183 239.051L311.6 232.598L294.202 293.492L316.785 299.944ZM331.195 244.128L353.139 222.185L336.531 205.577L314.588 227.521L331.195 244.128ZM353.139 179.005L320.995 146.861L304.388 163.469L336.531 195.613L353.139 179.005ZM353.139 222.185C355.327 219.996 357.474 217.862 359.129 215.914C360.871 213.86 362.746 211.255 363.851 207.853L341.514 200.595C341.748 199.874 342.024 199.772 341.224 200.714C340.335 201.761 338.994 203.115 336.531 205.577L353.139 222.185ZM336.531 195.613C338.994 198.075 340.335 199.429 341.224 200.476C342.024 201.418 341.748 201.316 341.514 200.595L363.851 193.337C362.746 189.935 360.871 187.329 359.129 185.276C357.474 183.328 355.327 181.193 353.139 179.005L336.531 195.613ZM363.851 207.853C365.383 203.136 365.383 198.054 363.851 193.337L341.514 200.595L363.851 207.853ZM280.452 334.452C287.521 332.821 293.699 331.54 298.937 328.354L286.731 308.29C285.498 309.039 283.818 309.572 275.171 311.567L280.452 334.452ZM294.202 293.492C291.764 302.025 291.145 303.675 290.332 304.868L309.744 318.091C313.195 313.024 314.792 306.919 316.785 299.944L294.202 293.492ZM298.937 328.354C303.23 325.744 306.915 322.243 309.744 318.091L290.332 304.868C289.389 306.252 288.162 307.418 286.731 308.29L298.937 328.354ZM200.056 183.215C193.08 185.208 186.976 186.805 181.909 190.257L195.132 209.667C196.325 208.855 197.975 208.236 206.508 205.798L200.056 183.215ZM188.432 224.83C190.428 216.182 190.961 214.502 191.711 213.269L171.645 201.063C168.459 206.301 167.179 212.48 165.547 219.549L188.432 224.83ZM181.909 190.257C177.756 193.086 174.257 196.77 171.645 201.063L191.711 213.269C192.581 211.838 193.748 210.61 195.132 209.667L181.909 190.257ZM294.422 163.469C296.885 161.006 298.239 159.665 299.286 158.776C300.228 157.976 300.126 158.252 299.405 158.486L292.148 136.149C288.745 137.255 286.14 139.129 284.086 140.872C282.138 142.526 280.004 144.673 277.815 146.861L294.422 163.469ZM320.995 146.861C318.806 144.673 316.672 142.526 314.724 140.872C312.67 139.129 310.066 137.255 306.662 136.149L299.405 158.486C298.684 158.252 298.582 157.977 299.524 158.776C300.571 159.665 301.925 161.006 304.388 163.469L320.995 146.861ZM299.405 158.486L306.662 136.149C301.945 134.617 296.865 134.617 292.148 136.149L299.405 158.486ZM255.872 185.412L314.588 244.128L331.195 227.521L272.479 168.805L255.872 185.412ZM202.315 281.076L138.44 344.953L155.047 361.56L218.922 297.683L202.315 281.076Z" fill="#04FF1D"/>
</svg>
