<svg width="508" height="800" viewBox="0 0 508 800" fill="none" xmlns="http://www.w3.org/2000/svg">
<path d="M335.606 81.0203C335.248 36.2234 298.922 0.0265625 253.998 0C209.102 0.0265625 172.748 36.2234 172.392 81.0203C72.6719 95.3953 0.835938 133.087 0.835938 158.903V185.025C0.835938 217.5 114.177 243.814 253.998 243.814C393.82 243.814 507.161 217.5 507.161 185.025V158.903C507.161 133.087 435.325 95.3953 335.606 81.0203ZM253.998 75.1016C244.241 75.1016 234.661 75.4078 225.197 75.8797C226.345 70.075 229.177 64.9484 233.234 60.8547C238.617 55.4844 245.811 52.2703 253.998 52.2453C262.212 52.2719 269.381 55.4844 274.789 60.8547C278.844 64.9484 281.677 70.0766 282.813 75.8797C273.348 75.4078 263.756 75.1016 253.998 75.1016Z" fill="black"/>
<path d="M253.998 278.648C114.177 278.648 0.835938 252.334 0.835938 219.859L29.7891 714.005C29.7891 747.666 115.3 800 253.998 800C392.697 800 478.233 747.666 478.233 714.005L507.161 219.859C507.161 252.334 393.82 278.648 253.998 278.648ZM101.792 658.878L91.3844 353.981C98.3609 355.575 105.836 356.916 113.68 358.267L124.23 667.451C116.128 664.744 108.667 661.823 101.792 658.878ZM193.336 682.781L187.697 366.722C194.942 367.219 202.289 367.705 209.764 367.947L215.402 685.103C207.8 684.491 200.439 683.75 193.336 682.781ZM314.661 682.781C307.556 683.75 300.069 684.491 292.48 685.103L298.117 367.947C305.592 367.705 312.952 367.219 320.184 366.722L314.661 682.781ZM406.205 658.878C399.342 661.825 391.869 664.745 383.781 667.45L394.319 358.266C402.163 356.914 409.636 355.459 416.627 353.98L406.205 658.878Z" fill="black"/>
</svg>
