<svg width="250" height="250" viewBox="0 0 250 250" fill="none" xmlns="http://www.w3.org/2000/svg">
<path d="M124.986 0C62.4929 0 0 31.249 0 78.1224C0 109.371 23.439 124.996 23.439 156.245C23.439 179.686 15.6316 179.686 15.6316 195.31C15.6316 203.118 40.6371 211.976 62.5013 218.751V250H187.495V218.751C187.495 218.751 234.657 204.193 234.365 195.31C233.882 180.752 226.558 179.686 226.558 156.245C226.558 140.62 250.322 108.63 249.997 78.1224C249.98 31.249 187.495 0 125.003 0H124.986ZM78.1078 93.7385C95.3642 93.7385 109.354 107.73 109.354 124.987C109.354 142.245 95.3642 156.236 78.1078 156.236C60.8514 156.236 46.8614 142.245 46.8614 124.987C46.8614 107.73 60.8514 93.7385 78.1078 93.7385ZM171.856 93.7385C189.112 93.7385 203.102 107.73 203.102 124.987C203.102 142.245 189.112 156.236 171.856 156.236C154.599 156.236 140.609 142.245 140.609 124.987C140.609 107.73 154.599 93.7385 171.856 93.7385ZM124.986 148.428C132.793 148.428 148.425 179.677 148.425 187.494C148.425 203.118 148.425 203.118 140.617 203.118H109.371C101.564 203.118 101.564 203.118 101.564 187.494C101.555 179.677 117.17 148.428 124.986 148.428Z" fill="white"/>
</svg>
