<svg width="230" height="230" viewBox="0 0 230 230" fill="none" xmlns="http://www.w3.org/2000/svg">
<path fill-rule="evenodd" clip-rule="evenodd" d="M105 67.7929C99.2423 69.0268 93.7194 71.3138 88.723 74.5807L54.9714 40.8293L40.8293 54.9715L74.6185 88.7605C72.2008 92.5014 70.2963 96.5855 68.9827 100.908C68.5717 102.261 68.2218 103.626 67.9327 105H52.0446L16.6726 69.6281L2.53051 83.7703L23.7603 105H0V125H23.7583L2.53051 146.228L16.6726 160.37L52.0426 125H67.9656C68.5714 127.834 69.4351 130.623 70.5548 133.332C71.6924 136.085 73.0756 138.71 74.6793 141.178L40.8293 175.028L54.9714 189.17L88.8166 155.325C89.9549 156.066 91.1276 156.76 92.3324 157.406C96.345 159.556 100.611 161.112 105 162.052V177.957L69.6282 213.328L83.7703 227.471L105 206.241V230H125V206.243L146.228 227.471L160.37 213.328L125 177.958V162.095C130.825 160.872 136.331 158.591 141.262 155.404L175.028 189.17L189.171 175.028L155.442 141.3C158.698 136.321 160.997 130.792 162.235 125H177.96L213.33 160.37L227.473 146.228L206.245 125H230.001V105H206.243L227.473 83.7703L213.33 69.6281L177.958 105H162.242C161.008 99.1857 158.717 93.645 155.485 88.657L189.171 54.9715L175.028 40.8293L141.356 74.5015C136.379 71.2687 130.835 68.9746 125 67.7502V52.0407L160.37 16.6707L146.228 2.52853L125 23.7565V0H105V23.7582L83.7703 2.52853L69.6282 16.6707L105 52.0424V67.7929ZM191.301 19.1992V38.2991H211.301V19.1992H191.301ZM18.8008 210.799V191.699H38.8008V210.799H18.8008ZM210.799 191.299H191.699V211.299H210.799V191.299ZM19.1992 18.7988H38.2992V38.7988H19.1992V18.7988ZM99.4376 91.4724C104.86 87.8504 111.371 86.2198 117.861 86.8582C124.343 87.4957 130.403 90.3571 135.014 94.9559C140.301 100.29 143.277 107.49 143.3 115.001C143.282 121.514 141.01 127.821 136.869 132.85C132.723 137.883 126.961 141.325 120.563 142.588C114.165 143.851 107.527 142.858 101.78 139.778C96.0318 136.697 91.5292 131.72 89.0384 125.693C86.5476 119.667 86.2226 112.963 88.1187 106.723C90.0147 100.484 94.0147 95.0944 99.4376 91.4724Z" fill="white"/>
</svg>
